STARTFONT 2.1
FONT -Gww-Caslon-Roman-R-Normal--28-200-100-100-P-165-ISO10646-1
SIZE 20 100 100
FONTBOUNDINGBOX 52 38 -29 -15
COMMENT "These bitmaps may be used freely"
COMMENT "Not all characters have been cleaned up"
COMMENT Copyright (C) 2000 by George Williams
COMMENT 
COMMENT Redistribution and use in source and binary forms, with or without
COMMENT modification, are permitted provided that the following conditions are met:
COMMENT 
COMMENT Redistributions of source code must retain the above copyright notice, this
COMMENT list of conditions and the following disclaimer.
COMMENT 
COMMENT Redistributions in binary form must reproduce the above copyright notice,
COMMENT this list of conditions and the following disclaimer in the documentation
COMMENT and/or other materials provided with the distribution.
COMMENT 
COMMENT The name of the author may not be used to endorse or promote products
COMMENT derived from this software without specific prior written permission.
COMMENT 
COMMENT THIS SOFTWARE IS PROVIDED BY THE AUTHOR ``AS IS'' AND ANY EXPRESS OR IMPLIED
COMMENT WARRANTIES, INCLUDING, BUT NOT LIMITED TO, THE IMPLIED WARRANTIES OF
COMMENT MERCHANTABILITY AND FITNESS FOR A PARTICULAR PURPOSE ARE DISCLAIMED. IN NO
COMMENT EVENT SHALL THE AUTHOR BE LIABLE FOR ANY DIRECT, INDIRECT, INCIDENTAL,
COMMENT SPECIAL, EXEMPLARY, OR CONSEQUENTIAL DAMAGES (INCLUDING, BUT NOT LIMITED TO,
COMMENT PROCUREMENT OF SUBSTITUTE GOODS OR SERVICES; LOSS OF USE, DATA, OR PROFITS;
COMMENT OR BUSINESS INTERRUPTION) HOWEVER CAUSED AND ON ANY THEORY OF LIABILITY,
COMMENT WHETHER IN CONTRACT, STRICT LIABILITY, OR TORT (INCLUDING NEGLIGENCE OR
COMMENT OTHERWISE) ARISING IN ANY WAY OUT OF THE USE OF THIS SOFTWARE, EVEN IF
COMMENT ADVISED OF THE POSSIBILITY OF SUCH DAMAGE.
STARTPROPERTIES 28
FONT_ASCENT 19
FONT_DESCENT 6
QUAD_WIDTH 28
X_HEIGHT 13
CAP_HEIGHT 19
FONTNAME_REGISTRY ""
FAMILY_NAME "Caslon"
FOUNDRY "GWW"
WEIGHT_NAME "Roman"
SETWIDTH_NAME "Normal"
SLANT "R"
ADD_STYLE_NAME ""

STARTCHAR space
ENCODING 32
SWIDTH 236 0
DWIDTH 7 0
BBX 0 0 0 0
BITMAP
ENDCHAR
STARTCHAR exclam
ENCODING 33
SWIDTH 217 0
DWIDTH 6 0
BBX 3 19 2 0
BITMAP
40
40
e0
e0
e0
e0
e0
e0
e0
40
40
40
40
40
00
00
40
e0
40
ENDCHAR
STARTCHAR quotedbl
ENCODING 34
SWIDTH 244 0
DWIDTH 7 0
BBX 4 4 2 15
BITMAP
90
90
90
90
ENDCHAR
STARTCHAR numbersign
ENCODING 35
SWIDTH 498 0
DWIDTH 14 0
BBX 12 16 0 1
BITMAP
0840
0840
0840
0880
0880
7ff0
1080
1080
1080
1080
ffe0
1100
1100
2100
2100
2100
ENDCHAR
STARTCHAR dollar
ENCODING 36
SWIDTH 573 0
DWIDTH 16 0
BBX 14 22 1 -3
BITMAP
0120
0fe0
1278
2258
4240
4240
6440
7440
3e80
1fc0
07f0
04f8
089c
088c
090c
090c
c908
f110
3fe0
1200
1200
1200
ENDCHAR
STARTCHAR percent
ENCODING 37
SWIDTH 1017 0
DWIDTH 28 0
BBX 24 20 1 0
BITMAP
1f0010
208020
60c040
c060c0
c06080
c06100
c06200
c06400
c064f8
60c904
209306
1f2603
002603
004603
008603
010603
010603
020306
040104
0400f8
ENDCHAR
STARTCHAR ampersand
ENCODING 38
SWIDTH 900 0
DWIDTH 25 0
BBX 21 19 2 0
BITMAP
038000
044000
0c4000
0c4000
0c4000
0c8000
070000
0f0000
338ff0
41c3c0
c0e180
c06100
c03200
c03c00
c01800
e01c08
706e10
3f87e0
0e03c0
ENDCHAR
STARTCHAR quotesingle
ENCODING 39
SWIDTH 220 0
DWIDTH 6 0
BBX 4 5 1 13
BITMAP
60
f0
70
60
c0
ENDCHAR
STARTCHAR parenleft
ENCODING 40
SWIDTH 354 0
DWIDTH 10 0
BBX 8 24 0 -5
BITMAP
02
04
08
10
30
20
60
60
c0
c0
c0
c0
c0
c0
c0
c0
60
60
20
30
08
04
02
01
ENDCHAR
STARTCHAR parenright
ENCODING 41
SWIDTH 354 0
DWIDTH 10 0
BBX 7 24 0 -5
BITMAP
80
40
20
10
18
08
0c
0c
06
06
06
06
06
06
06
06
0c
0c
08
18
10
20
40
80
ENDCHAR
STARTCHAR asterisk
ENCODING 42
SWIDTH 462 0
DWIDTH 13 0
BBX 9 9 2 4
BITMAP
0800
0800
c980
6b00
1c00
6b00
c980
0800
0800
ENDCHAR
STARTCHAR plus
ENCODING 43
SWIDTH 354 0
DWIDTH 10 0
BBX 7 8 1 4
BITMAP
10
10
10
fe
10
10
10
10
ENDCHAR
STARTCHAR comma
ENCODING 44
SWIDTH 233 0
DWIDTH 7 0
BBX 4 5 1 -2
BITMAP
60
f0
70
60
c0
ENDCHAR
STARTCHAR hyphen
ENCODING 45
SWIDTH 391 0
DWIDTH 11 0
BBX 7 1 1 6
BITMAP
fe
ENDCHAR
STARTCHAR period
ENCODING 46
SWIDTH 220 0
DWIDTH 6 0
BBX 3 3 2 0
BITMAP
e0
e0
e0
ENDCHAR
STARTCHAR slash
ENCODING 47
SWIDTH 536 0
DWIDTH 15 0
BBX 11 17 3 0
BITMAP
0060
00c0
00c0
0180
0180
0300
0600
0600
0c00
0c00
1800
1800
3000
3000
6000
6000
c000
ENDCHAR
STARTCHAR zero
ENCODING 48
SWIDTH 494 0
DWIDTH 14 0
BBX 12 16 1 0
BITMAP
1f80
30c0
6060
6060
c030
c030
c030
c030
c030
c030
c030
c030
6060
6060
30c0
1f80
ENDCHAR
STARTCHAR one
ENCODING 49
SWIDTH 299 0
DWIDTH 8 0
BBX 5 16 2 0
BITMAP
30
70
30
30
30
30
30
30
30
30
30
30
30
30
30
f8
ENDCHAR
STARTCHAR two
ENCODING 50
SWIDTH 409 0
DWIDTH 11 0
BBX 9 16 1 0
BITMAP
3c00
6e00
c700
8300
0300
0600
0600
0c00
0c00
1800
3000
6000
c000
c080
ff80
ff80
ENDCHAR
STARTCHAR three
ENCODING 51
SWIDTH 465 0
DWIDTH 13 0
BBX 10 16 2 0
BITMAP
3e00
6700
c300
0300
0300
0600
0e00
3f00
0380
0180
00c0
40c0
e0c0
e180
c380
7e00
ENDCHAR
STARTCHAR four
ENCODING 52
SWIDTH 528 0
DWIDTH 15 0
BBX 12 16 0 0
BITMAP
0060
00e0
00e0
0160
0260
0660
0460
0860
1060
3060
2060
7ff0
fff0
0060
0060
0060
ENDCHAR
STARTCHAR five
ENCODING 53
SWIDTH 441 0
DWIDTH 12 0
BBX 9 17 2 0
BITMAP
0100
7f00
7f00
4000
4000
4000
4000
7e00
7f00
4380
0180
0180
0180
c180
c100
c300
3e00
ENDCHAR
STARTCHAR six
ENCODING 54
SWIDTH 448 0
DWIDTH 13 0
BBX 10 16 1 0
BITMAP
0400
1800
3000
3000
6000
6000
df00
e180
c0c0
c0c0
c0c0
c0c0
c0c0
60c0
7180
1f00
ENDCHAR
STARTCHAR seven
ENCODING 55
SWIDTH 463 0
DWIDTH 13 0
BBX 9 16 3 0
BITMAP
ff80
ff80
8180
8300
0300
0300
0600
0600
0600
0c00
0c00
0c00
1800
1800
3000
3000
ENDCHAR
STARTCHAR eight
ENCODING 56
SWIDTH 472 0
DWIDTH 13 0
BBX 9 16 2 0
BITMAP
3e00
6300
c100
c100
c100
6200
3c00
1c00
6f00
c380
8180
8180
8180
c180
4300
3e00
ENDCHAR
STARTCHAR nine
ENCODING 57
SWIDTH 449 0
DWIDTH 13 0
BBX 11 16 1 0
BITMAP
1f00
61c0
60c0
c060
c060
c060
c060
c060
60e0
3fe0
00c0
00c0
0180
0180
0300
0c00
ENDCHAR
STARTCHAR colon
ENCODING 58
SWIDTH 220 0
DWIDTH 6 0
BBX 3 9 2 0
BITMAP
e0
e0
e0
00
00
00
e0
e0
e0
ENDCHAR
STARTCHAR semicolon
ENCODING 59
SWIDTH 220 0
DWIDTH 6 0
BBX 4 11 1 -2
BITMAP
70
70
70
00
00
00
60
f0
70
60
c0
ENDCHAR
STARTCHAR less
ENCODING 60
SWIDTH 591 0
DWIDTH 17 0
BBX 13 11 0 2
BITMAP
0018
0078
03e0
0f00
3800
f000
3c00
0f00
03c0
00f8
0018
ENDCHAR
STARTCHAR equal
ENCODING 61
SWIDTH 392 0
DWIDTH 11 0
BBX 8 6 1 5
BITMAP
ff
ff
00
00
ff
ff
ENDCHAR
STARTCHAR greater
ENCODING 62
SWIDTH 586 0
DWIDTH 16 0
BBX 12 11 2 2
BITMAP
c000
f000
3e00
0780
01e0
0070
01e0
0f00
3c00
f000
c000
ENDCHAR
STARTCHAR question
ENCODING 63
SWIDTH 419 0
DWIDTH 12 0
BBX 8 20 2 0
BITMAP
70
fc
c2
01
01
02
0e
7c
78
60
60
40
40
40
40
00
00
40
e0
40
ENDCHAR
STARTCHAR at
ENCODING 64
SWIDTH 808 0
DWIDTH 23 0
BBX 20 21 1 0
BITMAP
01fc00
07ff00
0e01c0
1800c0
300060
61f460
639c30
c70c30
c60c30
c60c30
c60c30
c60c30
c60c30
c70c60
c3fbe0
61f1c0
600000
300030
1e00e0
0fffc0
01ff00
ENDCHAR
STARTCHAR A
ENCODING 65
SWIDTH 732 0
DWIDTH 20 0
BBX 18 19 1 0
BITMAP
004000
00e000
006000
00e000
00b000
013000
013000
021800
021800
03f800
040c00
040c00
080c00
080600
080600
100600
100300
300300
fc0fc0
ENDCHAR
STARTCHAR B
ENCODING 66
SWIDTH 553 0
DWIDTH 15 0
BBX 13 19 1 0
BITMAP
ffe0
3030
3018
3018
3018
3018
3030
3060
3fe0
3030
3018
3018
3018
3018
3018
3018
3030
3060
ffc0
ENDCHAR
STARTCHAR C
ENCODING 67
SWIDTH 601 0
DWIDTH 17 0
BBX 15 19 1 0
BITMAP
07e4
181c
300c
300c
6004
6004
e000
c000
c000
c000
c000
c000
c000
e002
6002
6006
300c
183c
07c4
ENDCHAR
STARTCHAR D
ENCODING 68
SWIDTH 650 0
DWIDTH 18 0
BBX 16 19 1 0
BITMAP
fff0
3018
300c
3006
3006
3003
3003
3003
3003
3003
3003
3003
3003
3006
3006
300c
3018
3030
ffc0
ENDCHAR
STARTCHAR E
ENCODING 69
SWIDTH 584 0
DWIDTH 16 0
BBX 15 19 0 0
BITMAP
fffc
381c
300c
3006
3006
3022
3020
3060
3fe0
3060
3020
3020
3000
3002
3006
3006
300c
381c
fffc
ENDCHAR
STARTCHAR F
ENCODING 70
SWIDTH 556 0
DWIDTH 16 0
BBX 13 19 1 0
BITMAP
fff0
3830
3018
3008
3008
3040
3040
30c0
3fc0
30c0
3040
3040
3000
3000
3000
3000
3000
3000
fc00
ENDCHAR
STARTCHAR G
ENCODING 71
SWIDTH 610 0
DWIDTH 17 0
BBX 15 19 1 0
BITMAP
07e4
1c3c
381c
700c
6004
e004
c000
c000
c000
c03e
c00c
c00c
c00c
e00c
600c
700c
381c
1c30
07e0
ENDCHAR
STARTCHAR H
ENCODING 72
SWIDTH 695 0
DWIDTH 19 0
BBX 16 19 1 0
BITMAP
fc3f
300c
300c
300c
300c
300c
300c
300c
300c
3ffc
300c
300c
300c
300c
300c
300c
300c
300c
fc3f
ENDCHAR
STARTCHAR I
ENCODING 73
SWIDTH 297 0
DWIDTH 8 0
BBX 6 19 1 0
BITMAP
fc
30
30
30
30
30
30
30
30
30
30
30
30
30
30
30
30
30
fc
ENDCHAR
STARTCHAR J
ENCODING 74
SWIDTH 327 0
DWIDTH 9 0
BBX 8 22 1 -3
BITMAP
3f
0c
0c
0c
0c
0c
0c
0c
0c
0c
0c
0c
0c
0c
0c
0c
0c
0c
0c
cc
ec
78
ENDCHAR
STARTCHAR K
ENCODING 75
SWIDTH 662 0
DWIDTH 19 0
BBX 16 19 1 0
BITMAP
fc7f
3018
3010
3020
3040
3080
3100
3200
3700
3980
3180
30c0
3060
3060
3030
3018
3018
300c
fc1f
ENDCHAR
STARTCHAR L
ENCODING 76
SWIDTH 567 0
DWIDTH 16 0
BBX 14 19 1 0
BITMAP
fc00
3000
3000
3000
3000
3000
3000
3000
3000
3000
3000
3000
3000
3000
3004
3004
300c
3018
fff8
ENDCHAR
STARTCHAR M
ENCODING 77
SWIDTH 867 0
DWIDTH 24 0
BBX 22 19 1 0
BITMAP
fc007c
1c0070
1c0060
1600e0
1600e0
1301e0
130160
130160
118360
118260
10c260
10c660
10c460
106c60
106860
106860
103860
383060
fe31fc
ENDCHAR
STARTCHAR N
ENCODING 78
SWIDTH 730 0
DWIDTH 20 0
BBX 19 19 1 0
BITMAP
f80fe0
180380
1c0300
1e0100
160100
130100
118100
118100
10c100
10c100
106100
103100
103100
101900
100d00
100700
180700
380300
fe0300
ENDCHAR
STARTCHAR O
ENCODING 79
SWIDTH 710 0
DWIDTH 20 0
BBX 16 19 2 0
BITMAP
07e0
1818
300c
6006
6006
c003
c003
c003
c003
c003
c003
c003
c003
c003
6006
6006
300c
1818
07e0
ENDCHAR
STARTCHAR P
ENCODING 80
SWIDTH 491 0
DWIDTH 14 0
BBX 12 19 1 0
BITMAP
ffc0
3060
3030
3030
3030
3030
3060
30c0
3f00
3000
3000
3000
3000
3000
3000
3000
3000
3000
fc00
ENDCHAR
STARTCHAR Q
ENCODING 81
SWIDTH 710 0
DWIDTH 20 0
BBX 16 22 2 -3
BITMAP
07e0
1818
300c
6006
6006
c003
c003
c003
c003
c003
c003
c003
c003
c003
c003
6006
6006
300c
0c32
13c4
18f8
1830
ENDCHAR
STARTCHAR R
ENCODING 82
SWIDTH 627 0
DWIDTH 18 0
BBX 16 19 1 0
BITMAP
ffc0
3060
3030
3030
3030
3030
3030
3060
3f80
3180
30c0
30c0
3060
3030
3030
3018
3018
300c
fc07
ENDCHAR
STARTCHAR S
ENCODING 83
SWIDTH 502 0
DWIDTH 14 0
BBX 12 19 1 0
BITMAP
1f20
60e0
4060
c020
c020
c020
e000
7000
3e00
0f80
01c0
0060
0030
8030
8010
c010
e020
7060
4f80
ENDCHAR
STARTCHAR T
ENCODING 84
SWIDTH 741 0
DWIDTH 21 0
BBX 18 19 2 0
BITMAP
7fff80
60c180
c0c0c0
80c040
80c040
00c000
00c000
00c000
00c000
00c000
00c000
00c000
00c000
00c000
00c000
00c000
00c000
01e000
07f800
ENDCHAR
STARTCHAR U
ENCODING 85
SWIDTH 656 0
DWIDTH 18 0
BBX 16 19 1 0
BITMAP
fe1f
3004
3004
3004
3004
3004
3004
3004
3004
3004
3004
3004
3004
3004
3004
3804
180c
1c18
07f0
ENDCHAR
STARTCHAR V
ENCODING 86
SWIDTH 704 0
DWIDTH 20 0
BBX 18 19 1 0
BITMAP
fc1fc0
700700
300600
300600
180400
180c00
180c00
0c0800
0c1800
0c1800
061000
063000
063000
032000
036000
034000
01c000
01c000
018000
ENDCHAR
STARTCHAR W
ENCODING 87
SWIDTH 1022 0
DWIDTH 29 0
BBX 27 19 1 0
BITMAP
f87e0fe0
60380380
30180300
30180300
180c0200
180c0600
180c0600
0c0e0400
0c1b0c00
0c130c00
06130800
06319800
06219000
03219000
0360f000
0340e000
01c0e000
01c06000
01804000
ENDCHAR
STARTCHAR X
ENCODING 88
SWIDTH 662 0
DWIDTH 19 0
BBX 17 19 1 0
BITMAP
7e3f80
1c1e00
0c1c00
0e1800
063000
073000
036000
03e000
01c000
00c000
01e000
036000
037000
063800
041800
0c1c00
180c00
3c0e00
fe3f80
ENDCHAR
STARTCHAR Y
ENCODING 89
SWIDTH 653 0
DWIDTH 18 0
BBX 16 19 2 0
BITMAP
fc3f
300c
3018
1810
1820
0c20
0c40
0680
0700
0300
0300
0300
0300
0300
0300
0300
0300
0300
0fc0
ENDCHAR
STARTCHAR Z
ENCODING 90
SWIDTH 582 0
DWIDTH 16 0
BBX 13 19 2 0
BITMAP
7ff8
7838
6030
c060
80c0
80c0
0180
0180
0300
0600
0600
0c00
1800
1808
3008
3018
6018
e070
fff0
ENDCHAR
STARTCHAR bracketleft
ENCODING 91
SWIDTH 361 0
DWIDTH 10 0
BBX 6 25 2 -6
BITMAP
fc
c0
c0
c0
c0
c0
c0
c0
c0
c0
c0
c0
c0
c0
c0
c0
c0
c0
c0
c0
c0
c0
c0
c0
fc
ENDCHAR
STARTCHAR backslash
ENCODING 92
SWIDTH 462 0
DWIDTH 13 0
BBX 10 16 1 0
BITMAP
8000
4000
6000
2000
3000
1000
0800
0800
0400
0400
0200
0300
0100
0180
0080
0040
ENDCHAR
STARTCHAR bracketright
ENCODING 93
SWIDTH 361 0
DWIDTH 10 0
BBX 5 25 2 -6
BITMAP
f8
18
18
18
18
18
18
18
18
18
18
18
18
18
18
18
18
18
18
18
18
18
18
18
f8
ENDCHAR
STARTCHAR asciicircum
ENCODING 94
SWIDTH 409 0
DWIDTH 11 0
BBX 9 6 1 10
BITMAP
1c00
1c00
3e00
7700
6300
c180
ENDCHAR
STARTCHAR underscore
ENCODING 95
SWIDTH 565 0
DWIDTH 16 0
BBX 14 2 0 -6
BITMAP
fffc
fffc
ENDCHAR
STARTCHAR grave
ENCODING 96
SWIDTH 321 0
DWIDTH 9 0
BBX 4 3 2 18
BITMAP
c0
20
10
ENDCHAR
STARTCHAR a
ENCODING 97
SWIDTH 400 0
DWIDTH 11 0
BBX 10 13 1 0
BITMAP
3e00
4700
c300
c300
8300
0700
3b00
6300
c300
c300
c700
cb40
7380
ENDCHAR
STARTCHAR b
ENCODING 98
SWIDTH 489 0
DWIDTH 14 0
BBX 11 19 1 0
BITMAP
2000
e000
6000
6000
6000
6000
7f80
60c0
60e0
6060
6060
6060
6060
6060
6060
6040
60c0
6080
5f00
ENDCHAR
STARTCHAR c
ENCODING 99
SWIDTH 424 0
DWIDTH 12 0
BBX 10 13 1 0
BITMAP
1e00
2100
4180
4180
c000
c000
c000
c000
c000
c040
6080
7f00
1e00
ENDCHAR
STARTCHAR d
ENCODING 100
SWIDTH 487 0
DWIDTH 14 0
BBX 12 19 1 0
BITMAP
0020
00e0
0060
0060
0060
0060
1f60
30e0
6060
c060
c060
c060
c060
c060
c060
c060
6060
30f0
1f60
ENDCHAR
STARTCHAR e
ENCODING 101
SWIDTH 457 0
DWIDTH 13 0
BBX 10 13 1 0
BITMAP
3f00
6180
6180
c0c0
ffc0
c000
c000
c000
c000
c040
60c0
7f80
1f00
ENDCHAR
STARTCHAR f
ENCODING 102
SWIDTH 272 0
DWIDTH 8 0
BBX 7 19 0 0
BITMAP
0e
16
10
30
30
30
fc
30
30
30
30
30
30
30
30
30
30
30
fc
ENDCHAR
STARTCHAR g
ENCODING 103
SWIDTH 457 0
DWIDTH 13 0
BBX 11 20 1 -6
BITMAP
00c0
1ec0
2100
6180
6180
6180
6180
2100
1300
3c00
4000
7000
3f00
43c0
8060
8020
8020
8060
40c0
3f00
ENDCHAR
STARTCHAR h
ENCODING 104
SWIDTH 510 0
DWIDTH 14 0
BBX 13 19 1 0
BITMAP
3000
7000
f000
3000
3000
3300
34c0
3860
3060
3060
3060
3060
3060
3060
3060
3060
3060
3060
f9f8
ENDCHAR
STARTCHAR i
ENCODING 105
SWIDTH 262 0
DWIDTH 7 0
BBX 5 17 1 0
BITMAP
30
30
00
00
30
f0
70
30
30
30
30
30
30
30
30
30
f8
ENDCHAR
STARTCHAR j
ENCODING 106
SWIDTH 287 0
DWIDTH 8 0
BBX 5 21 1 -4
BITMAP
18
18
00
00
18
38
18
18
18
18
18
18
18
18
18
18
18
18
d8
f0
60
ENDCHAR
STARTCHAR k
ENCODING 107
SWIDTH 526 0
DWIDTH 15 0
BBX 14 19 1 0
BITMAP
1000
7000
f000
3000
3000
3000
33f8
30c0
3080
3100
3200
3600
3e00
3300
3180
3180
30c0
3060
fdfc
ENDCHAR
STARTCHAR l
ENCODING 108
SWIDTH 262 0
DWIDTH 7 0
BBX 6 19 1 0
BITMAP
30
70
f0
30
30
30
30
30
30
30
30
30
30
30
30
30
30
30
fc
ENDCHAR
STARTCHAR m
ENCODING 109
SWIDTH 785 0
DWIDTH 22 0
BBX 20 13 1 0
BITMAP
37cf80
78f1c0
f060c0
3060c0
3060c0
3060c0
3060c0
3060c0
3060c0
3060c0
3060c0
3060c0
fdfbf0
ENDCHAR
STARTCHAR n
ENCODING 110
SWIDTH 510 0
DWIDTH 14 0
BBX 13 13 1 0
BITMAP
37c0
78e0
f060
3060
3060
3060
3060
3060
3060
3060
3060
3060
fdf8
ENDCHAR
STARTCHAR o
ENCODING 111
SWIDTH 482 0
DWIDTH 13 0
BBX 11 13 1 0
BITMAP
1f00
3180
60c0
c060
c060
c060
c060
c060
c060
c060
60c0
3180
1f00
ENDCHAR
STARTCHAR p
ENCODING 112
SWIDTH 524 0
DWIDTH 15 0
BBX 12 17 1 -4
BITMAP
1780
78e0
3060
3030
3030
3030
3030
3030
3030
3020
3060
3840
3780
3000
3000
3000
fc00
ENDCHAR
STARTCHAR q
ENCODING 113
SWIDTH 440 0
DWIDTH 12 0
BBX 13 18 0 -5
BITMAP
1fa0
30e0
6060
6060
c060
c060
c060
c060
c060
c060
6060
60e0
3160
0e60
0060
0060
0060
0078
ENDCHAR
STARTCHAR r
ENCODING 114
SWIDTH 345 0
DWIDTH 10 0
BBX 8 13 1 0
BITMAP
27
eb
70
60
60
60
60
60
60
60
60
60
f8
ENDCHAR
STARTCHAR s
ENCODING 115
SWIDTH 385 0
DWIDTH 11 0
BBX 8 13 1 0
BITMAP
3c
42
81
c1
e0
70
3c
0e
03
81
81
c2
3c
ENDCHAR
STARTCHAR t
ENCODING 116
SWIDTH 265 0
DWIDTH 7 0
BBX 6 16 1 0
BITMAP
20
60
60
f8
60
60
60
60
60
60
60
60
60
64
78
30
ENDCHAR
STARTCHAR u
ENCODING 117
SWIDTH 524 0
DWIDTH 15 0
BBX 14 13 1 0
BITMAP
f0f0
3030
3030
3030
3030
3030
3030
3030
3030
3030
303c
3878
1fa0
ENDCHAR
STARTCHAR v
ENCODING 118
SWIDTH 465 0
DWIDTH 13 0
BBX 12 13 1 0
BITMAP
f9f0
30e0
3080
3080
1880
1900
1900
0d00
0d00
0e00
0600
0400
0400
ENDCHAR
STARTCHAR w
ENCODING 119
SWIDTH 629 0
DWIDTH 18 0
BBX 18 13 0 0
BITMAP
fbc7c0
718300
318300
30c200
30c200
18c400
18c400
19e400
0d6800
0e6800
0e3800
043000
041000
ENDCHAR
STARTCHAR x
ENCODING 120
SWIDTH 481 0
DWIDTH 13 0
BBX 12 13 1 0
BITMAP
7bf0
30c0
1880
0d00
0600
0600
0700
0700
0980
1180
10c0
20e0
fdf0
ENDCHAR
STARTCHAR y
ENCODING 121
SWIDTH 440 0
DWIDTH 12 0
BBX 13 16 0 -3
BITMAP
f9f8
3060
3060
3040
1840
1880
1880
0d00
0f00
0e00
0c00
0400
0c00
2800
7000
7000
ENDCHAR
STARTCHAR z
ENCODING 122
SWIDTH 404 0
DWIDTH 11 0
BBX 9 13 1 0
BITMAP
7f80
4300
8300
8600
0600
0c00
0c00
1800
3000
3080
6080
c100
ff00
ENDCHAR
STARTCHAR braceleft
ENCODING 123
SWIDTH 346 0
DWIDTH 10 0
BBX 6 25 2 -6
BITMAP
1c
30
20
20
20
20
20
20
20
20
60
40
80
60
20
20
20
20
20
20
20
20
20
30
1c
ENDCHAR
STARTCHAR bar
ENCODING 124
SWIDTH 155 0
DWIDTH 4 0
BBX 1 20 2 0
BITMAP
80
80
80
80
80
80
80
80
80
80
80
80
80
80
80
80
80
80
80
80
ENDCHAR
STARTCHAR braceright
ENCODING 125
SWIDTH 346 0
DWIDTH 10 0
BBX 7 25 1 -6
BITMAP
f0
38
18
18
18
18
18
18
18
18
1c
0c
06
1c
18
18
18
18
18
18
18
18
18
38
f0
ENDCHAR
STARTCHAR asciitilde
ENCODING 126
SWIDTH 409 0
DWIDTH 11 0
BBX 9 3 2 13
BITMAP
7980
ff80
cf00
ENDCHAR
STARTCHAR uni00A0
ENCODING 160
SWIDTH 236 0
DWIDTH 7 0
BBX 0 0 0 0
BITMAP
ENDCHAR
STARTCHAR exclamdown
ENCODING 161
SWIDTH 217 0
DWIDTH 6 0
BBX 4 20 1 -1
BITMAP
60
f0
60
00
00
60
60
60
60
60
f0
f0
f0
f0
f0
f0
f0
f0
60
60
ENDCHAR
STARTCHAR cent
ENCODING 162
SWIDTH 481 0
DWIDTH 13 0
BBX 11 17 0 -2
BITMAP
0100
0200
0f80
33c0
62e0
6240
c200
c400
c400
c400
c400
6460
78c0
3f80
0f00
0800
0800
ENDCHAR
STARTCHAR sterling
ENCODING 163
SWIDTH 611 0
DWIDTH 17 0
BBX 13 19 2 0
BITMAP
0070
0198
0108
0300
0200
0600
0600
0600
0c00
0c00
0c00
3f00
1800
1800
1018
1018
3f08
e390
c0e0
ENDCHAR
STARTCHAR currency
ENCODING 164
SWIDTH 544 0
DWIDTH 15 0
BBX 12 12 1 3
BITMAP
df30
fff0
70e0
e060
c070
c070
c070
c070
e060
70e0
fff0
cf30
ENDCHAR
STARTCHAR yen
ENCODING 165
SWIDTH 647 0
DWIDTH 18 0
BBX 17 19 1 0
BITMAP
fc1f80
380600
180c00
0c0800
0c1000
ffff00
062000
034000
ffff00
018000
018000
018000
018000
018000
018000
018000
018000
018000
07e000
ENDCHAR
STARTCHAR brokenbar
ENCODING 166
SWIDTH 201 0
DWIDTH 6 0
BBX 1 20 2 0
BITMAP
80
80
80
80
80
80
80
80
80
00
00
80
80
80
80
80
80
80
80
80
ENDCHAR
STARTCHAR section
ENCODING 167
SWIDTH 359 0
DWIDTH 10 0
BBX 9 20 1 0
BITMAP
3f00
7180
e380
e180
e000
7000
1c00
7600
6700
e300
e300
6700
7e00
1c00
0e00
0700
c700
e700
ce00
7c00
ENDCHAR
STARTCHAR dieresis
ENCODING 168
SWIDTH 0 0
DWIDTH 0 0
BBX 6 2 2 15
BITMAP
cc
cc
ENDCHAR
STARTCHAR copyright
ENCODING 169
SWIDTH 539 0
DWIDTH 15 0
BBX 12 14 2 7
BITMAP
0f00
1f80
30c0
6560
cb30
d130
d030
d030
d130
cb30
6560
30c0
1f80
0f00
ENDCHAR
STARTCHAR ordfeminine
ENCODING 170
SWIDTH 317 0
DWIDTH 9 0
BBX 8 11 0 4
BITMAP
3c
46
46
0e
36
46
c6
ce
73
00
ff
ENDCHAR
STARTCHAR guillemotleft
ENCODING 171
SWIDTH 827 0
DWIDTH 23 0
BBX 19 14 1 2
BITMAP
002020
0060e0
01c1c0
070700
1c1c00
707000
c0c000
e0e000
383800
0e1c00
070700
01c1c0
006060
002020
ENDCHAR
STARTCHAR logicalnot
ENCODING 172
SWIDTH 638 0
DWIDTH 18 0
BBX 16 6 1 1
BITMAP
ffff
0003
0003
0003
0003
0003
ENDCHAR
STARTCHAR uni00AD
ENCODING 173
SWIDTH 340 0
DWIDTH 10 0
BBX 7 1 1 6
BITMAP
fe
ENDCHAR
STARTCHAR registered
ENCODING 174
SWIDTH 529 0
DWIDTH 15 0
BBX 12 14 2 7
BITMAP
0f00
1f80
30c0
6e60
c930
ca30
cc30
ca30
c930
c930
6060
30c0
1f80
0f00
ENDCHAR
STARTCHAR macron
ENCODING 175
SWIDTH 315 0
DWIDTH 9 0
BBX 6 1 1 16
BITMAP
fc
ENDCHAR
STARTCHAR degree
ENCODING 176
SWIDTH 222 0
DWIDTH 6 0
BBX 5 4 0 14
BITMAP
70
d8
d8
70
ENDCHAR
STARTCHAR plusminus
ENCODING 177
SWIDTH 331 0
DWIDTH 9 0
BBX 7 7 1 6
BITMAP
10
10
10
fe
10
10
fe
ENDCHAR
STARTCHAR twosuperior
ENCODING 178
SWIDTH 272 0
DWIDTH 8 0
BBX 5 9 1 11
BITMAP
70
98
18
18
30
60
c0
88
f8
ENDCHAR
STARTCHAR threesuperior
ENCODING 179
SWIDTH 267 0
DWIDTH 7 0
BBX 5 8 1 11
BITMAP
60
b0
30
60
10
18
d0
e0
ENDCHAR
STARTCHAR acute
ENCODING 180
SWIDTH 275 0
DWIDTH 8 0
BBX 4 3 2 18
BITMAP
30
40
80
ENDCHAR
STARTCHAR mu
ENCODING 181
SWIDTH 671 0
DWIDTH 19 0
BBX 15 17 1 -4
BITMAP
3060
3060
3060
3060
3060
6060
6060
60c0
60c2
60c2
60c4
d1fc
ce70
c000
c000
c000
c000
ENDCHAR
STARTCHAR paragraph
ENCODING 182
SWIDTH 592 0
DWIDTH 17 0
BBX 15 21 0 -2
BITMAP
3ffe
7ccc
f8cc
f0cc
f0cc
f0cc
f8cc
7ccc
1fcc
00cc
00cc
00cc
00cc
00cc
00cc
00cc
00cc
00cc
00cc
00cc
00cc
ENDCHAR
STARTCHAR periodcentered
ENCODING 183
SWIDTH 217 0
DWIDTH 6 0
BBX 4 3 2 6
BITMAP
f0
f0
f0
ENDCHAR
STARTCHAR cedilla
ENCODING 184
SWIDTH 0 0
DWIDTH 0 0
BBX 5 6 5 -6
BITMAP
40
70
18
08
18
f0
ENDCHAR
STARTCHAR onesuperior
ENCODING 185
SWIDTH 227 0
DWIDTH 6 0
BBX 2 9 2 11
BITMAP
c0
40
40
40
40
40
40
40
c0
ENDCHAR
STARTCHAR ordmasculine
ENCODING 186
SWIDTH 390 0
DWIDTH 10 0
BBX 8 11 1 4
BITMAP
3c
66
c3
c3
c3
c3
c3
66
3c
00
ff
ENDCHAR
STARTCHAR guillemotright
ENCODING 187
SWIDTH 827 0
DWIDTH 23 0
BBX 20 14 1 2
BITMAP
c0c000
f0e000
787800
1e1e00
078780
01e1e0
007070
00f0f0
03c3c0
078f00
1e1e00
787800
e0e000
c0c000
ENDCHAR
STARTCHAR onequarter
ENCODING 188
SWIDTH 419 0
DWIDTH 12 0
BBX 10 20 1 0
BITMAP
4000
c800
4800
4800
4800
4800
4800
5000
f000
1000
1000
1000
1180
1280
2280
2480
2880
2fc0
2080
2080
ENDCHAR
STARTCHAR onehalf
ENCODING 189
SWIDTH 385 0
DWIDTH 11 0
BBX 9 20 1 0
BITMAP
4000
c800
4800
4800
4800
4800
4800
5000
f000
1000
1000
1000
1300
1480
2080
2080
2100
2200
2480
2780
ENDCHAR
STARTCHAR threequarters
ENCODING 190
SWIDTH 488 0
DWIDTH 14 0
BBX 12 19 1 0
BITMAP
6200
9200
1200
6200
1200
1200
9400
6400
0400
0400
0420
0460
04a0
08a0
0920
0a20
0ff0
0820
0820
ENDCHAR
STARTCHAR questiondown
ENCODING 191
SWIDTH 419 0
DWIDTH 12 0
BBX 7 19 2 0
BITMAP
04
0e
04
00
00
04
04
04
04
0c
1c
7c
f0
80
80
80
86
7e
1e
ENDCHAR
STARTCHAR Agrave
ENCODING 192
SWIDTH 732 0
DWIDTH 20 0
BBX 18 22 1 0
BITMAP
00c000
006000
000000
004000
00e000
00e000
00a000
013000
013000
013000
021800
021800
07f800
040c00
040c00
080c00
080600
100600
100600
100300
300300
fc0fc0
ENDCHAR
STARTCHAR Aacute
ENCODING 193
SWIDTH 732 0
DWIDTH 20 0
BBX 18 22 1 0
BITMAP
003800
006000
008000
004000
00c000
00e000
00a000
013000
013000
013000
021800
021800
07f800
041c00
040c00
080c00
080600
100600
100600
100300
300300
fc0fc0
ENDCHAR
STARTCHAR Acircumflex
ENCODING 194
SWIDTH 732 0
DWIDTH 20 0
BBX 18 22 1 0
BITMAP
006000
00f000
019800
014800
00e000
00e000
00a000
013000
013000
013000
021800
021800
07f800
040c00
040c00
080c00
080600
100600
100600
100300
300300
fc0fc0
ENDCHAR
STARTCHAR Atilde
ENCODING 195
SWIDTH 732 0
DWIDTH 20 0
BBX 18 22 1 0
BITMAP
00e800
017000
000000
004000
00e000
00e000
00a000
013000
013000
013000
021800
021800
07f800
040c00
040c00
080c00
080600
100600
100600
100300
300300
fc0fc0
ENDCHAR
STARTCHAR Adieresis
ENCODING 196
SWIDTH 732 0
DWIDTH 20 0
BBX 18 22 1 0
BITMAP
031800
031800
000000
004000
00c000
00e000
00a000
013000
013000
013000
021800
021800
07f800
040c00
040c00
080c00
080600
100600
100600
100300
300300
fc0fc0
ENDCHAR
STARTCHAR Aring
ENCODING 197
SWIDTH 732 0
DWIDTH 20 0
BBX 18 22 1 0
BITMAP
00c000
012000
012000
00c000
00e000
00e000
00a000
013000
013000
013000
021800
021800
07f800
040c00
040c00
080c00
080600
100600
100600
100300
300300
fc0fc0
ENDCHAR
STARTCHAR AE
ENCODING 198
SWIDTH 888 0
DWIDTH 25 0
BBX 23 19 1 0
BITMAP
00fff8
007018
007008
00b004
00b004
013044
013040
0230c0
03ffc0
0230c0
043040
043040
083000
083002
103004
103004
103008
303018
fcfff8
ENDCHAR
STARTCHAR Ccedilla
ENCODING 199
SWIDTH 601 0
DWIDTH 17 0
BBX 15 25 1 -6
BITMAP
07e4
181c
300c
300c
6004
6004
c004
c000
c000
c000
c000
c000
c000
c002
6006
6004
300c
183c
0fc4
0100
01e0
0030
0030
0060
03c0
ENDCHAR
STARTCHAR Egrave
ENCODING 200
SWIDTH 584 0
DWIDTH 17 0
BBX 14 22 1 0
BITMAP
0600
0300
0080
fff8
3038
3018
300c
3004
3044
3040
30c0
3fc0
30c0
3040
3040
3000
3004
3004
300c
3008
3018
fff8
ENDCHAR
STARTCHAR Eacute
ENCODING 201
SWIDTH 584 0
DWIDTH 17 0
BBX 14 22 1 0
BITMAP
00c0
0180
0200
fff8
3038
3018
300c
3004
3044
3040
30c0
3fc0
30c0
3040
3040
3000
3004
3004
300c
3008
3018
fff8
ENDCHAR
STARTCHAR Ecircumflex
ENCODING 202
SWIDTH 584 0
DWIDTH 16 0
BBX 14 22 1 0
BITMAP
0200
0500
0880
fff8
3038
3018
300c
3004
3044
3040
30c0
3fc0
30c0
3040
3040
3000
3004
3004
300c
3008
3018
fff8
ENDCHAR
STARTCHAR Edieresis
ENCODING 203
SWIDTH 584 0
DWIDTH 16 0
BBX 14 22 1 0
BITMAP
0ee0
0ee0
0000
fff8
3038
3018
300c
3004
3044
3040
30c0
3fc0
30c0
3040
3040
3000
3004
3004
300c
3008
3018
fff8
ENDCHAR
STARTCHAR Igrave
ENCODING 204
SWIDTH 324 0
DWIDTH 8 0
BBX 6 22 1 0
BITMAP
60
30
08
fc
30
30
30
30
30
30
30
30
30
30
30
30
30
30
30
30
30
fc
ENDCHAR
STARTCHAR Iacute
ENCODING 205
SWIDTH 324 0
DWIDTH 8 0
BBX 6 22 1 0
BITMAP
1c
38
60
fc
30
30
30
30
30
30
30
30
30
30
30
30
30
30
30
30
30
fc
ENDCHAR
STARTCHAR Icircumflex
ENCODING 206
SWIDTH 324 0
DWIDTH 8 0
BBX 6 22 1 0
BITMAP
30
78
84
fc
30
30
30
30
30
30
30
30
30
30
30
30
30
30
30
30
30
fc
ENDCHAR
STARTCHAR Idieresis
ENCODING 207
SWIDTH 324 0
DWIDTH 8 0
BBX 6 22 1 0
BITMAP
cc
cc
00
fc
30
30
30
30
30
30
30
30
30
30
30
30
30
30
30
30
30
fc
ENDCHAR
STARTCHAR Eth
ENCODING 208
SWIDTH 650 0
DWIDTH 18 0
BBX 16 19 1 0
BITMAP
fff0
301c
300c
3006
3006
3003
3003
3003
3003
fc03
3003
3003
3003
3006
3006
300c
3008
3030
ffc0
ENDCHAR
STARTCHAR Ntilde
ENCODING 209
SWIDTH 730 0
DWIDTH 20 0
BBX 19 22 1 0
BITMAP
01d800
037000
000000
f80fe0
180380
1c0100
1c0100
160100
130100
130100
118100
10c100
10c100
106100
106100
103100
101900
101900
100d00
100700
380700
fe0300
ENDCHAR
STARTCHAR Ograve
ENCODING 210
SWIDTH 710 0
DWIDTH 20 0
BBX 16 22 2 0
BITMAP
0600
0300
0080
07e0
1818
300c
6006
6006
c003
c003
c003
c003
c003
c003
c003
c003
c003
6006
6006
300c
1818
07e0
ENDCHAR
STARTCHAR Oacute
ENCODING 211
SWIDTH 710 0
DWIDTH 20 0
BBX 16 22 2 0
BITMAP
00c0
0180
0200
07e0
1818
300c
6006
6006
c003
c003
c003
c003
c003
c003
c003
c003
c003
6006
6006
300c
1818
07e0
ENDCHAR
STARTCHAR Ocircumflex
ENCODING 212
SWIDTH 710 0
DWIDTH 20 0
BBX 16 22 2 0
BITMAP
0180
0240
0420
07e0
1818
300c
6006
6006
c003
c003
c003
c003
c003
c003
c003
c003
c003
6006
6006
300c
1818
07e0
ENDCHAR
STARTCHAR Otilde
ENCODING 213
SWIDTH 710 0
DWIDTH 20 0
BBX 16 22 2 0
BITMAP
0390
04e0
0000
07e0
1818
300c
6006
6006
c003
c003
c003
c003
c003
c003
c003
c003
c003
6006
6006
300c
1818
07e0
ENDCHAR
STARTCHAR Odieresis
ENCODING 214
SWIDTH 710 0
DWIDTH 20 0
BBX 16 22 2 0
BITMAP
0660
0660
0000
07e0
1818
300c
6006
6006
c003
c003
c003
c003
c003
c003
c003
c003
c003
6006
6006
300c
1818
07e0
ENDCHAR
STARTCHAR multiply
ENCODING 215
SWIDTH 296 0
DWIDTH 8 0
BBX 5 6 2 5
BITMAP
88
d8
70
70
d8
88
ENDCHAR
STARTCHAR Oslash
ENCODING 216
SWIDTH 710 0
DWIDTH 20 0
BBX 16 20 2 -1
BITMAP
07e8
0ff8
1818
302c
6026
6046
c043
c083
c083
c103
c303
c203
c403
c403
6806
6806
300c
3818
2ff0
43c0
ENDCHAR
STARTCHAR Ugrave
ENCODING 217
SWIDTH 656 0
DWIDTH 18 0
BBX 16 22 1 0
BITMAP
0300
0080
0040
fc1f
3004
3004
3004
3004
3004
3004
3004
3004
3004
3004
3004
3004
3004
3004
3004
180c
1c18
07f0
ENDCHAR
STARTCHAR Uacute
ENCODING 218
SWIDTH 656 0
DWIDTH 18 0
BBX 16 22 1 0
BITMAP
0038
0060
00c0
fc1f
3004
3004
3004
3004
3004
3004
3004
3004
3004
3004
3004
3004
3004
3004
3004
180c
1c18
07f0
ENDCHAR
STARTCHAR Ucircumflex
ENCODING 219
SWIDTH 656 0
DWIDTH 18 0
BBX 16 22 1 0
BITMAP
0080
0140
0220
fc1f
3004
3004
3004
3004
3004
3004
3004
3004
3004
3004
3004
3004
3004
3004
3004
180c
1c18
07f0
ENDCHAR
STARTCHAR Udieresis
ENCODING 220
SWIDTH 656 0
DWIDTH 18 0
BBX 16 22 1 0
BITMAP
0770
0770
0000
fc1f
3004
3004
3004
3004
3004
3004
3004
3004
3004
3004
3004
3004
3004
3004
3004
180c
1c18
07f0
ENDCHAR
STARTCHAR Yacute
ENCODING 221
SWIDTH 653 0
DWIDTH 18 0
BBX 15 22 2 0
BITMAP
00e0
0180
0200
f87e
7018
3010
1820
1820
0c40
0c80
0680
0700
0300
0300
0300
0300
0300
0300
0300
0300
0300
1fe0
ENDCHAR
STARTCHAR Thorn
ENCODING 222
SWIDTH 471 0
DWIDTH 13 0
BBX 12 25 1 -6
BITMAP
fc00
3000
3000
3000
3000
3000
3000
3fc0
3060
3030
3030
3030
3030
3030
3060
3f80
3000
3000
3000
3000
3000
3000
3000
3000
fc00
ENDCHAR
STARTCHAR germandbls
ENCODING 223
SWIDTH 534 0
DWIDTH 15 0
BBX 13 19 1 0
BITMAP
0f80
18e0
3060
3030
3030
3030
7030
3030
3060
31c0
31e0
3070
3038
3018
3618
3f18
3f18
3630
f3e0
ENDCHAR
STARTCHAR agrave
ENCODING 224
SWIDTH 402 0
DWIDTH 11 0
BBX 10 18 1 0
BITMAP
1800
0400
0200
0000
0000
3e00
6700
c300
c300
0300
0700
3b00
6300
c300
c300
c700
ef40
7380
ENDCHAR
STARTCHAR aacute
ENCODING 225
SWIDTH 402 0
DWIDTH 11 0
BBX 10 17 1 0
BITMAP
0700
0c00
1800
0000
3e00
6700
c300
c300
0300
0700
3b00
6300
c300
c300
c700
ef40
7380
ENDCHAR
STARTCHAR acircumflex
ENCODING 226
SWIDTH 402 0
DWIDTH 11 0
BBX 10 18 1 0
BITMAP
0c00
1e00
3300
6180
0000
3e00
6700
c300
c300
0300
0700
3b00
6300
c300
c300
c700
ef40
7380
ENDCHAR
STARTCHAR atilde
ENCODING 227
SWIDTH 402 0
DWIDTH 11 0
BBX 10 18 1 0
BITMAP
3b00
6e00
0000
0000
0000
3e00
6700
c300
c300
0300
0700
3b00
6300
c300
c300
c700
ef40
7380
ENDCHAR
STARTCHAR adieresis
ENCODING 228
SWIDTH 402 0
DWIDTH 11 0
BBX 10 17 1 0
BITMAP
7700
7700
0000
0000
3e00
6700
c300
c300
0300
0700
3b00
6300
c300
c300
c700
ef40
7380
ENDCHAR
STARTCHAR aring
ENCODING 229
SWIDTH 402 0
DWIDTH 11 0
BBX 10 18 1 0
BITMAP
0e00
1b00
1b00
0e00
0000
3e00
6700
c300
c300
0300
0700
3b00
6300
c300
c300
c700
ef40
7380
ENDCHAR
STARTCHAR ae
ENCODING 230
SWIDTH 644 0
DWIDTH 18 0
BBX 16 13 1 0
BITMAP
3c7c
46fe
c383
c303
03ff
0700
1b00
6300
c300
c381
c783
edfe
787c
ENDCHAR
STARTCHAR ccedilla
ENCODING 231
SWIDTH 424 0
DWIDTH 12 0
BBX 10 19 1 -6
BITMAP
1e00
7100
6180
c180
c000
c000
c000
c000
c000
c040
6080
7b00
3e00
0800
0e00
0300
0300
0300
1e00
ENDCHAR
STARTCHAR egrave
ENCODING 232
SWIDTH 457 0
DWIDTH 13 0
BBX 10 18 1 0
BITMAP
1800
0400
0200
0000
0000
1f00
7180
60c0
c0c0
ffc0
c000
c000
c000
c000
e040
60c0
7f80
1f00
ENDCHAR
STARTCHAR eacute
ENCODING 233
SWIDTH 457 0
DWIDTH 13 0
BBX 10 17 1 0
BITMAP
0380
0600
0c00
0000
1f00
7180
60c0
c0c0
ffc0
c000
c000
c000
c000
e040
60c0
7f80
1f00
ENDCHAR
STARTCHAR ecircumflex
ENCODING 234
SWIDTH 457 0
DWIDTH 13 0
BBX 10 18 1 0
BITMAP
0600
0f00
1980
30c0
0000
1f00
7180
60c0
c0c0
ffc0
c000
c000
c000
c000
e040
60c0
7f80
1f00
ENDCHAR
STARTCHAR edieresis
ENCODING 235
SWIDTH 457 0
DWIDTH 13 0
BBX 10 17 1 0
BITMAP
3300
3300
0000
0000
1f00
7180
60c0
c0c0
ffc0
c000
c000
c000
c000
e040
60c0
7f80
1f00
ENDCHAR
STARTCHAR igrave
ENCODING 236
SWIDTH 287 0
DWIDTH 7 0
BBX 7 17 0 0
BITMAP
c0
20
10
00
08
38
78
18
18
18
18
18
18
18
18
18
7e
ENDCHAR
STARTCHAR iacute
ENCODING 237
SWIDTH 262 0
DWIDTH 7 0
BBX 6 17 1 0
BITMAP
38
60
c0
00
10
70
f0
30
30
30
30
30
30
30
30
30
fc
ENDCHAR
STARTCHAR icircumflex
ENCODING 238
SWIDTH 262 0
DWIDTH 7 0
BBX 7 18 0 0
BITMAP
10
38
6c
c6
00
10
70
30
30
30
30
30
30
30
30
30
30
fc
ENDCHAR
STARTCHAR idieresis
ENCODING 239
SWIDTH 262 0
DWIDTH 7 0
BBX 7 17 0 0
BITMAP
ee
ee
00
00
08
38
78
18
18
18
18
18
18
18
18
18
7e
ENDCHAR
STARTCHAR eth
ENCODING 240
SWIDTH 452 0
DWIDTH 13 0
BBX 10 18 1 0
BITMAP
3c00
0600
0300
07c0
0180
0180
0780
1d80
3180
3180
6180
6180
c100
c300
c300
c600
6c00
7800
ENDCHAR
STARTCHAR ntilde
ENCODING 241
SWIDTH 510 0
DWIDTH 14 0
BBX 13 18 1 0
BITMAP
0ec0
1b80
0000
0000
0000
3780
78c0
f060
3060
3060
3060
3060
3060
3060
3060
3060
3060
fdf8
ENDCHAR
STARTCHAR ograve
ENCODING 242
SWIDTH 482 0
DWIDTH 13 0
BBX 11 17 1 0
BITMAP
1800
0400
0200
0000
1f00
71c0
60c0
e0e0
c060
c060
c060
c060
c060
e0e0
60c0
71c0
1f00
ENDCHAR
STARTCHAR oacute
ENCODING 243
SWIDTH 482 0
DWIDTH 13 0
BBX 11 17 1 0
BITMAP
0700
0c00
1800
0000
1f00
71c0
60c0
e0e0
c060
c060
c060
c060
c060
e0e0
60c0
71c0
1f00
ENDCHAR
STARTCHAR ocircumflex
ENCODING 244
SWIDTH 482 0
DWIDTH 13 0
BBX 11 18 1 0
BITMAP
0400
0e00
1b00
3180
0000
1f00
71c0
60c0
e0e0
c060
c060
c060
c060
c060
e0e0
60c0
71c0
1f00
ENDCHAR
STARTCHAR otilde
ENCODING 245
SWIDTH 482 0
DWIDTH 13 0
BBX 11 18 1 0
BITMAP
1d80
3700
0000
0000
0000
1f00
71c0
60c0
e0e0
c060
c060
c060
c060
c060
e0e0
60c0
71c0
1f00
ENDCHAR
STARTCHAR odieresis
ENCODING 246
SWIDTH 482 0
DWIDTH 13 0
BBX 11 17 1 0
BITMAP
1b00
1b00
0000
0000
1f00
71c0
60c0
e0e0
c060
c060
c060
c060
c060
e0e0
60c0
71c0
1f00
ENDCHAR
STARTCHAR divide
ENCODING 247
SWIDTH 364 0
DWIDTH 10 0
BBX 8 9 1 3
BITMAP
18
18
00
00
ff
00
00
18
18
ENDCHAR
STARTCHAR oslash
ENCODING 248
SWIDTH 515 0
DWIDTH 14 0
BBX 10 13 2 0
BITMAP
1e80
7f80
6180
c2c0
c6c0
c4c0
c8c0
d8c0
d0c0
e0c0
6180
7f80
9e00
ENDCHAR
STARTCHAR ugrave
ENCODING 249
SWIDTH 524 0
DWIDTH 15 0
BBX 14 17 1 0
BITMAP
0c00
0200
0100
0000
f0f0
3030
3030
3030
3030
3030
3030
3030
3030
3030
307c
38f8
1fb0
ENDCHAR
STARTCHAR uacute
ENCODING 250
SWIDTH 524 0
DWIDTH 15 0
BBX 14 17 1 0
BITMAP
0380
0600
0c00
0000
f0f0
3030
3030
3030
3030
3030
3030
3030
3030
3030
307c
38f8
1fb0
ENDCHAR
STARTCHAR ucircumflex
ENCODING 251
SWIDTH 524 0
DWIDTH 15 0
BBX 14 19 1 0
BITMAP
0200
0700
0d80
18c0
0000
0000
f0f0
3030
3030
3030
3030
3030
3030
3030
3030
3030
307c
38f8
1fb0
ENDCHAR
STARTCHAR udieresis
ENCODING 252
SWIDTH 524 0
DWIDTH 15 0
BBX 14 17 1 0
BITMAP
1980
1980
0000
0000
f0f0
3030
3030
3030
3030
3030
3030
3030
3030
3030
307c
38f8
1fb0
ENDCHAR
STARTCHAR yacute
ENCODING 253
SWIDTH 440 0
DWIDTH 12 0
BBX 13 20 0 -3
BITMAP
01c0
0300
0600
0000
f9f8
3060
3060
3040
18c0
1880
1980
1900
0f00
0e00
0e00
0c00
0c00
2c00
7800
7000
ENDCHAR
STARTCHAR thorn
ENCODING 254
SWIDTH 524 0
DWIDTH 15 0
BBX 12 20 1 -4
BITMAP
fc00
3000
3000
37c0
3860
3070
3030
3030
3030
3030
3030
3030
3020
3060
3840
3780
3000
3000
3000
fc00
ENDCHAR
STARTCHAR ydieresis
ENCODING 255
SWIDTH 461 0
DWIDTH 13 0
BBX 13 20 0 -3
BITMAP
0cc0
0cc0
0000
0000
f9f8
3060
3060
3040
18c0
1880
1980
1900
0f00
0e00
0e00
0c00
0c00
2c00
7800
7000
ENDCHAR
STARTCHAR Amacron
ENCODING 256
SWIDTH 732 0
DWIDTH 20 0
BBX 18 22 1 0
BITMAP
01f800
000000
000000
004000
00c000
006000
00e000
00b000
013000
013000
021800
021800
03f800
040c00
040c00
080c00
080600
080600
100600
100300
300300
fc0fc0
ENDCHAR
STARTCHAR amacron
ENCODING 257
SWIDTH 400 0
DWIDTH 11 0
BBX 10 17 1 0
BITMAP
7f00
0000
0000
0000
3e00
4700
c300
c300
8300
0700
3b00
6300
c300
c300
c700
cf40
7380
ENDCHAR
STARTCHAR Abreve
ENCODING 258
SWIDTH 732 0
DWIDTH 20 0
BBX 18 22 1 0
BITMAP
011000
00e000
000000
004000
00c000
006000
00e000
00b000
013000
013000
021800
021800
03f800
040c00
040c00
080c00
080600
080600
100600
100300
300300
fc0fc0
ENDCHAR
STARTCHAR abreve
ENCODING 259
SWIDTH 400 0
DWIDTH 11 0
BBX 10 18 1 0
BITMAP
2200
3e00
1c00
0000
0000
3e00
4700
c300
c300
8300
0700
3b00
6300
c300
c300
c700
cf40
7380
ENDCHAR
STARTCHAR Aogonek
ENCODING 260
SWIDTH 732 0
DWIDTH 20 0
BBX 18 24 1 -5
BITMAP
004000
00c000
006000
00e000
00b000
013000
013000
021800
021800
03f800
040c00
040c00
080c00
080600
080600
100600
100300
300300
fc0fc0
020000
040000
040000
062000
03c000
ENDCHAR
STARTCHAR aogonek
ENCODING 261
SWIDTH 400 0
DWIDTH 11 0
BBX 10 18 1 -5
BITMAP
3e00
4700
c300
c300
8300
0700
3b00
6300
c300
c300
c700
cf40
7380
1000
2000
2000
3200
1c00
ENDCHAR
STARTCHAR Cacute
ENCODING 262
SWIDTH 601 0
DWIDTH 17 0
BBX 15 22 1 0
BITMAP
00c0
0100
0000
07e4
181c
300c
300c
6004
6004
e000
c000
c000
c000
c000
c000
c000
e002
6002
6006
300c
183c
07c4
ENDCHAR
STARTCHAR cacute
ENCODING 263
SWIDTH 424 0
DWIDTH 12 0
BBX 10 18 1 0
BITMAP
0600
0800
0000
0000
0000
1e00
2100
4180
4180
c000
c000
c000
c000
c000
c040
6080
7f00
1e00
ENDCHAR
STARTCHAR Ccircumflex
ENCODING 264
SWIDTH 601 0
DWIDTH 17 0
BBX 15 22 1 0
BITMAP
0100
0280
0000
07e4
181c
300c
300c
6004
6004
e000
c000
c000
c000
c000
c000
c000
e002
6002
6006
300c
183c
07c4
ENDCHAR
STARTCHAR ccircumflex
ENCODING 265
SWIDTH 424 0
DWIDTH 12 0
BBX 10 18 1 0
BITMAP
0c00
1200
2100
0000
0000
1e00
2100
4180
4180
c000
c000
c000
c000
c000
c040
6080
7f00
1e00
ENDCHAR
STARTCHAR Cdotaccent
ENCODING 266
SWIDTH 601 0
DWIDTH 17 0
BBX 15 22 1 0
BITMAP
0180
0180
0000
07e4
181c
300c
300c
6004
6004
e000
c000
c000
c000
c000
c000
c000
e002
6002
6006
300c
183c
07c4
ENDCHAR
STARTCHAR cdotaccent
ENCODING 267
SWIDTH 424 0
DWIDTH 12 0
BBX 10 18 1 0
BITMAP
0c00
0c00
0000
0000
0000
1e00
2100
4180
4180
c000
c000
c000
c000
c000
c040
6080
7f00
1e00
ENDCHAR
STARTCHAR Ccaron
ENCODING 268
SWIDTH 601 0
DWIDTH 17 0
BBX 15 22 1 0
BITMAP
0440
0280
0100
07e4
181c
300c
300c
6004
6004
e000
c000
c000
c000
c000
c000
c000
e002
6002
6006
300c
183c
07c4
ENDCHAR
STARTCHAR ccaron
ENCODING 269
SWIDTH 424 0
DWIDTH 12 0
BBX 10 17 1 0
BITMAP
1100
0a00
0400
0000
1e00
2100
4180
4180
c000
c000
c000
c000
c000
c040
6080
7f00
1e00
ENDCHAR
STARTCHAR Dcaron
ENCODING 270
SWIDTH 650 0
DWIDTH 18 0
BBX 16 22 1 0
BITMAP
0440
0280
0100
fff0
3018
300c
3006
3006
3007
3003
3003
3003
3003
3003
3003
3003
3006
3006
300c
3018
3030
ffc0
ENDCHAR
STARTCHAR dcaron
ENCODING 271
SWIDTH 487 0
DWIDTH 14 0
BBX 11 22 1 0
BITMAP
1100
0a00
0400
0040
01c0
00c0
00c0
00c0
00c0
1ec0
31c0
60c0
60c0
c0c0
c0c0
c0c0
c0c0
c0c0
60c0
60e0
31c0
1e80
ENDCHAR
STARTCHAR Dcroat
ENCODING 272
SWIDTH 650 0
DWIDTH 18 0
BBX 16 19 1 0
BITMAP
fff0
3018
300c
3006
3006
3003
3003
3003
3003
fc03
fc03
3003
3003
3006
3006
300c
3018
3030
ffc0
ENDCHAR
STARTCHAR dcroat
ENCODING 273
SWIDTH 487 0
DWIDTH 14 0
BBX 12 19 1 0
BITMAP
0040
00c0
01c0
00c0
03f0
00c0
1ec0
31c0
60c0
60c0
c0c0
c0c0
c0c0
c0c0
c0c0
60c0
60c0
31e0
1e80
ENDCHAR
STARTCHAR Emacron
ENCODING 274
SWIDTH 584 0
DWIDTH 16 0
BBX 15 22 0 0
BITMAP
07e0
0000
0000
fffc
381c
300c
3006
3006
3022
3020
3060
3fe0
3060
3020
3020
3000
3002
3006
3006
300c
381c
fffc
ENDCHAR
STARTCHAR emacron
ENCODING 275
SWIDTH 457 0
DWIDTH 13 0
BBX 10 16 1 0
BITMAP
3f80
0000
0000
1f00
6180
6180
c0c0
ffc0
c000
c000
c000
c000
c040
60c0
7f80
1f00
ENDCHAR
STARTCHAR Ebreve
ENCODING 276
SWIDTH 584 0
DWIDTH 16 0
BBX 15 22 0 0
BITMAP
0440
0380
0000
fffc
381c
300c
3006
3006
3022
3020
3060
3fe0
3060
3020
3020
3000
3002
3006
3006
300c
381c
fffc
ENDCHAR
STARTCHAR ebreve
ENCODING 277
SWIDTH 457 0
DWIDTH 13 0
BBX 10 16 1 0
BITMAP
1100
0e00
0000
1f00
6180
6180
c0c0
ffc0
c000
c000
c000
c000
c040
60c0
7f80
1f00
ENDCHAR
STARTCHAR Edotaccent
ENCODING 278
SWIDTH 584 0
DWIDTH 16 0
BBX 15 22 0 0
BITMAP
0180
0180
0000
fffc
381c
300c
3006
3006
3022
3020
3060
3fe0
3060
3020
3020
3000
3002
3006
3006
300c
381c
fffc
ENDCHAR
STARTCHAR edotaccent
ENCODING 279
SWIDTH 457 0
DWIDTH 13 0
BBX 10 17 1 0
BITMAP
0c00
0c00
0000
0000
1f00
6180
6180
c0c0
ffc0
c000
c000
c000
c000
c040
60c0
7f80
1f00
ENDCHAR
STARTCHAR Eogonek
ENCODING 280
SWIDTH 584 0
DWIDTH 16 0
BBX 15 24 0 -5
BITMAP
fffc
381c
300c
3006
3006
3022
3020
3060
3fe0
3060
3020
3020
3000
3002
3006
3006
300c
381c
fffc
1000
2000
2000
3100
1e00
ENDCHAR
STARTCHAR eogonek
ENCODING 281
SWIDTH 457 0
DWIDTH 13 0
BBX 10 18 1 -5
BITMAP
1f00
6180
6180
c0c0
ffc0
c000
c000
c000
c000
c040
60c0
7f80
1f00
0800
1000
1000
1880
0f00
ENDCHAR
STARTCHAR Ecaron
ENCODING 282
SWIDTH 584 0
DWIDTH 16 0
BBX 15 22 0 0
BITMAP
0440
0280
0100
fffc
381c
300c
3006
3006
3022
3020
3060
3fe0
3060
3020
3020
3000
3002
3006
3006
300c
381c
fffc
ENDCHAR
STARTCHAR ecaron
ENCODING 283
SWIDTH 457 0
DWIDTH 13 0
BBX 10 18 1 0
BITMAP
1100
0a00
0400
0000
0000
1f00
6180
6180
c0c0
ffc0
c000
c000
c000
c000
c040
60c0
7f80
1f00
ENDCHAR
STARTCHAR Gcircumflex
ENCODING 284
SWIDTH 610 0
DWIDTH 17 0
BBX 15 23 1 0
BITMAP
0100
0280
0440
0000
07e4
1c3c
381c
700c
6004
e004
c000
c000
c000
c03e
c00c
c00c
c00c
e00c
600c
700c
381c
1c30
07e0
ENDCHAR
STARTCHAR gcircumflex
ENCODING 285
SWIDTH 457 0
DWIDTH 13 0
BBX 11 25 1 -6
BITMAP
0400
0a00
1100
0000
0000
00c0
1ec0
2100
6180
6180
6180
6180
2100
1300
3c00
4000
7000
3f00
43c0
8060
8020
8020
8060
40c0
3f00
ENDCHAR
STARTCHAR Gbreve
ENCODING 286
SWIDTH 610 0
DWIDTH 17 0
BBX 15 22 1 0
BITMAP
0440
0380
0000
07e4
1c3c
381c
700c
6004
e004
c000
c000
c000
c03e
c00c
c00c
c00c
e00c
600c
700c
381c
1c30
07e0
ENDCHAR
STARTCHAR gbreve
ENCODING 287
SWIDTH 457 0
DWIDTH 13 0
BBX 11 24 1 -6
BITMAP
2100
1e00
0000
0000
00c0
1ec0
2100
6180
6180
6180
6180
2100
1300
3c00
4000
7000
3f00
43c0
8060
8020
8020
8060
40c0
3f00
ENDCHAR
STARTCHAR Gdotaccent
ENCODING 288
SWIDTH 610 0
DWIDTH 17 0
BBX 15 22 1 0
BITMAP
0180
0180
0000
07e4
1c3c
381c
700c
6004
e004
c000
c000
c000
c03e
c00c
c00c
c00c
e00c
600c
700c
381c
1c30
07e0
ENDCHAR
STARTCHAR gdotaccent
ENCODING 289
SWIDTH 457 0
DWIDTH 13 0
BBX 11 23 1 -6
BITMAP
0c00
0c00
0000
00c0
1ec0
2100
6180
6180
6180
6180
2100
1300
3c00
4000
7000
3f00
43c0
8060
8020
8020
8060
40c0
3f00
ENDCHAR
STARTCHAR Gcommaaccent
ENCODING 290
SWIDTH 610 0
DWIDTH 17 0
BBX 15 25 1 -6
BITMAP
07e4
1c3c
381c
700c
6004
e004
c000
c000
c000
c03e
c00c
c00c
c00c
e00c
600c
700c
381c
1c30
07e0
0100
01c0
0060
0060
0060
03c0
ENDCHAR
STARTCHAR gcommaaccent
ENCODING 291
SWIDTH 457 0
DWIDTH 13 0
BBX 11 27 1 -6
BITMAP
3e00
7000
6000
7000
3c00
0400
0000
00c0
1ec0
2100
6180
6180
6180
6180
2100
1300
3c00
4000
7000
3f00
43c0
8060
8020
8020
8060
40c0
3f00
ENDCHAR
STARTCHAR Hcircumflex
ENCODING 292
SWIDTH 695 0
DWIDTH 19 0
BBX 16 23 2 0
BITMAP
0100
0280
0440
0000
fc3f
300c
300c
300c
300c
300c
300c
300c
300c
3ffc
300c
300c
300c
300c
300c
300c
300c
300c
fc3f
ENDCHAR
STARTCHAR hcircumflex
ENCODING 293
SWIDTH 510 0
DWIDTH 14 0
BBX 13 22 1 0
BITMAP
0100
0280
0440
1000
7000
f000
3000
3000
3000
37c0
38e0
3060
3060
3060
3060
3060
3060
3060
3060
3060
3060
fdf8
ENDCHAR
STARTCHAR Hbar
ENCODING 294
SWIDTH 695 0
DWIDTH 19 0
BBX 16 19 2 0
BITMAP
fc3f
300c
300c
300c
ffff
300c
300c
300c
300c
3ffc
300c
300c
300c
300c
300c
300c
300c
300c
fc3f
ENDCHAR
STARTCHAR hbar
ENCODING 295
SWIDTH 510 0
DWIDTH 14 0
BBX 13 19 1 0
BITMAP
1000
7000
f000
3000
fc00
3000
37c0
38e0
3060
3060
3060
3060
3060
3060
3060
3060
3060
3060
fdf8
ENDCHAR
STARTCHAR Itilde
ENCODING 296
SWIDTH 297 0
DWIDTH 8 0
BBX 6 22 1 0
BITMAP
64
98
00
fc
30
30
30
30
30
30
30
30
30
30
30
30
30
30
30
30
30
fc
ENDCHAR
STARTCHAR itilde
ENCODING 297
SWIDTH 262 0
DWIDTH 7 0
BBX 6 18 1 0
BITMAP
68
b0
00
00
00
10
f0
30
30
30
30
30
30
30
30
30
30
fc
ENDCHAR
STARTCHAR Imacron
ENCODING 298
SWIDTH 297 0
DWIDTH 8 0
BBX 6 21 1 0
BITMAP
fc
00
fc
30
30
30
30
30
30
30
30
30
30
30
30
30
30
30
30
30
fc
ENDCHAR
STARTCHAR imacron
ENCODING 299
SWIDTH 262 0
DWIDTH 7 0
BBX 6 17 1 0
BITMAP
fc
00
00
00
10
f0
30
30
30
30
30
30
30
30
30
30
fc
ENDCHAR
STARTCHAR Ibreve
ENCODING 300
SWIDTH 297 0
DWIDTH 8 0
BBX 6 22 1 0
BITMAP
84
78
00
fc
30
30
30
30
30
30
30
30
30
30
30
30
30
30
30
30
30
fc
ENDCHAR
STARTCHAR ibreve
ENCODING 301
SWIDTH 262 0
DWIDTH 7 0
BBX 6 18 1 0
BITMAP
88
f8
70
00
00
10
f0
30
30
30
30
30
30
30
30
30
30
fc
ENDCHAR
STARTCHAR Iogonek
ENCODING 302
SWIDTH 297 0
DWIDTH 8 0
BBX 7 24 1 -5
BITMAP
fc
30
30
30
30
30
30
30
30
30
30
30
30
30
30
30
30
30
fc
20
40
40
62
3c
ENDCHAR
STARTCHAR iogonek
ENCODING 303
SWIDTH 262 0
DWIDTH 7 0
BBX 6 22 1 -5
BITMAP
30
30
00
00
10
70
30
30
30
30
30
30
30
30
30
30
fc
20
40
40
64
38
ENDCHAR
STARTCHAR Idotaccent
ENCODING 304
SWIDTH 297 0
DWIDTH 8 0
BBX 6 22 1 0
BITMAP
30
30
00
fc
30
30
30
30
30
30
30
30
30
30
30
30
30
30
30
30
30
fc
ENDCHAR
STARTCHAR dotlessi
ENCODING 305
SWIDTH 262 0
DWIDTH 7 0
BBX 6 13 1 0
BITMAP
10
f0
30
30
30
30
30
30
30
30
30
30
fc
ENDCHAR
STARTCHAR IJ
ENCODING 306
SWIDTH 651 0
DWIDTH 18 0
BBX 17 22 1 -3
BITMAP
fc1f80
300600
300600
300600
300600
300600
300600
300600
300600
300600
300600
300600
300600
300600
300600
300600
300600
300600
fc4400
00e400
00e800
007000
ENDCHAR
STARTCHAR ij
ENCODING 307
SWIDTH 549 0
DWIDTH 15 0
BBX 11 21 1 -4
BITMAP
3060
3060
0000
0000
1020
70e0
3060
3060
3060
3060
3060
3060
3060
3060
3060
3060
fc60
0060
0160
0340
0180
ENDCHAR
STARTCHAR Jcircumflex
ENCODING 308
SWIDTH 327 0
DWIDTH 9 0
BBX 9 26 0 -3
BITMAP
0600
0900
1080
0000
1f80
0600
0600
0600
0600
0600
0600
0600
0600
0600
0600
0600
0600
0600
0600
0600
0600
0600
4600
e400
e800
7000
ENDCHAR
STARTCHAR jcircumflex
ENCODING 309
SWIDTH 287 0
DWIDTH 8 0
BBX 7 22 0 -4
BITMAP
18
24
42
00
00
08
38
18
18
18
18
18
18
18
18
18
18
18
18
d0
d0
60
ENDCHAR
STARTCHAR Kcommaaccent
ENCODING 310
SWIDTH 662 0
DWIDTH 19 0
BBX 15 25 2 -6
BITMAP
fcfe
3038
3030
3020
3040
3080
3100
3200
3400
3e00
3300
3180
30c0
3060
3060
3030
3018
301c
fc3e
0100
01c0
0060
0060
0060
03c0
ENDCHAR
STARTCHAR kcommaaccent
ENCODING 311
SWIDTH 526 0
DWIDTH 15 0
BBX 13 25 1 -6
BITMAP
1000
7000
f000
3000
3000
3000
31f8
30e0
3080
3100
3200
3600
3f00
3300
3180
3180
30c0
3060
fcf8
0200
0380
00c0
00c0
00c0
0780
ENDCHAR
STARTCHAR kgreenlandic
ENCODING 312
SWIDTH 526 0
DWIDTH 15 0
BBX 13 13 1 0
BITMAP
fdf0
30c0
3080
3100
3200
3600
3e00
3300
3180
3180
30c0
30c0
fc78
ENDCHAR
STARTCHAR Lacute
ENCODING 313
SWIDTH 567 0
DWIDTH 16 0
BBX 14 22 1 0
BITMAP
0c00
1000
0000
fc00
3000
3000
3000
3000
3000
3000
3000
3000
3000
3000
3000
3000
3000
3004
3004
3008
3038
fff8
ENDCHAR
STARTCHAR lacute
ENCODING 314
SWIDTH 262 0
DWIDTH 7 0
BBX 6 22 1 0
BITMAP
30
40
00
10
70
f0
30
30
30
30
30
30
30
30
30
30
30
30
30
30
30
fc
ENDCHAR
STARTCHAR Lcommaaccent
ENCODING 315
SWIDTH 567 0
DWIDTH 16 0
BBX 14 25 1 -6
BITMAP
fc00
3000
3000
3000
3000
3000
3000
3000
3000
3000
3000
3000
3000
3000
3004
3004
3008
3038
fff8
0400
0700
0180
0180
0180
0f00
ENDCHAR
STARTCHAR lcommaaccent
ENCODING 316
SWIDTH 262 0
DWIDTH 7 0
BBX 6 25 1 -6
BITMAP
10
70
f0
30
30
30
30
30
30
30
30
30
30
30
30
30
30
30
fc
20
38
0c
0c
0c
78
ENDCHAR
STARTCHAR Lcaron
ENCODING 317
SWIDTH 567 0
DWIDTH 16 0
BBX 14 22 1 0
BITMAP
4400
2800
1000
fc00
3000
3000
3000
3000
3000
3000
3000
3000
3000
3000
3000
3000
3000
3004
3004
3008
3038
fff8
ENDCHAR
STARTCHAR lcaron
ENCODING 318
SWIDTH 262 0
DWIDTH 7 0
BBX 6 22 1 0
BITMAP
88
50
20
10
70
f0
30
30
30
30
30
30
30
30
30
30
30
30
30
30
30
fc
ENDCHAR
STARTCHAR Ldot
ENCODING 319
SWIDTH 567 0
DWIDTH 16 0
BBX 14 19 1 0
BITMAP
fc00
3000
3000
3000
3000
3000
3000
3000
30c0
30c0
3000
3000
3000
3000
3004
3004
3008
3038
fff8
ENDCHAR
STARTCHAR ldot
ENCODING 320
SWIDTH 262 0
DWIDTH 7 0
BBX 8 19 1 0
BITMAP
10
70
f0
30
30
30
30
30
33
33
30
30
30
30
30
30
30
30
fc
ENDCHAR
STARTCHAR Lslash
ENCODING 321
SWIDTH 567 0
DWIDTH 16 0
BBX 14 19 1 0
BITMAP
fc00
3000
3000
3000
3000
3c00
f000
3000
3000
3000
3000
3000
3000
3000
3004
3004
3008
3038
fff8
ENDCHAR
STARTCHAR lslash
ENCODING 322
SWIDTH 262 0
DWIDTH 7 0
BBX 6 19 1 0
BITMAP
10
70
f0
30
30
3c
f0
30
30
30
30
30
30
30
30
30
30
30
fc
ENDCHAR
STARTCHAR Nacute
ENCODING 323
SWIDTH 730 0
DWIDTH 20 0
BBX 19 22 1 0
BITMAP
006000
008000
000000
780fe0
1c0380
1c0100
160100
160100
130100
118100
118100
10c100
106100
106100
103100
101100
101900
100d00
100d00
100700
380300
fe0300
ENDCHAR
STARTCHAR nacute
ENCODING 324
SWIDTH 510 0
DWIDTH 14 0
BBX 13 19 1 0
BITMAP
0180
0200
0000
0000
0000
0000
17c0
78e0
f060
3060
3060
3060
3060
3060
3060
3060
3060
3060
fdf8
ENDCHAR
STARTCHAR Ncommaaccent
ENCODING 325
SWIDTH 730 0
DWIDTH 20 0
BBX 19 25 1 -6
BITMAP
780fe0
1c0380
1c0100
160100
130100
130100
118100
118100
10c100
106100
106100
103100
101900
101900
100d00
100d00
100700
380300
fe0300
002000
003800
000c00
000c00
000c00
007800
ENDCHAR
STARTCHAR ncommaaccent
ENCODING 326
SWIDTH 510 0
DWIDTH 14 0
BBX 13 19 1 -6
BITMAP
17c0
78e0
f060
3060
3060
3060
3060
3060
3060
3060
3060
3060
fdf8
0400
0700
0180
0180
0180
0f00
ENDCHAR
STARTCHAR Ncaron
ENCODING 327
SWIDTH 730 0
DWIDTH 20 0
BBX 19 22 1 0
BITMAP
022000
014000
008000
780fe0
1c0380
1c0100
160100
130100
130100
118100
118100
10c100
106100
106100
103100
103100
101900
100d00
100d00
100700
380300
fe0300
ENDCHAR
STARTCHAR ncaron
ENCODING 328
SWIDTH 510 0
DWIDTH 14 0
BBX 13 19 1 0
BITMAP
0880
0500
0200
0000
0000
0000
17c0
78e0
f060
3060
3060
3060
3060
3060
3060
3060
3060
3060
fdf8
ENDCHAR
STARTCHAR napostrophe
ENCODING 329
SWIDTH 510 0
DWIDTH 14 0
BBX 13 20 1 0
BITMAP
0100
0380
0380
0180
0300
0000
0000
17c0
78e0
f060
3060
3060
3060
3060
3060
3060
3060
3060
3060
fdf8
ENDCHAR
STARTCHAR Eng
ENCODING 330
SWIDTH 730 0
DWIDTH 20 0
BBX 19 22 1 -3
BITMAP
7807e0
180180
1c0180
160180
160180
130180
118180
118180
10c180
104180
106180
103180
103180
101980
100d80
100d80
100780
380380
fe1b00
003900
003a00
001c00
ENDCHAR
STARTCHAR eng
ENCODING 331
SWIDTH 510 0
DWIDTH 14 0
BBX 11 17 1 -4
BITMAP
17c0
78e0
f060
3060
3060
3060
3060
3060
3060
3060
3060
3060
fc60
0060
0060
0340
0380
ENDCHAR
STARTCHAR Omacron
ENCODING 332
SWIDTH 710 0
DWIDTH 20 0
BBX 16 22 2 0
BITMAP
07e0
0000
0000
07e0
1818
300c
6006
6006
c003
c003
c003
c003
c003
c003
c003
c003
c003
6006
6006
300c
1818
07e0
ENDCHAR
STARTCHAR omacron
ENCODING 333
SWIDTH 482 0
DWIDTH 13 0
BBX 11 16 1 0
BITMAP
1f00
0000
0000
1f00
3180
60c0
c060
c060
c060
c060
c060
c060
c060
60c0
3180
1f00
ENDCHAR
STARTCHAR Obreve
ENCODING 334
SWIDTH 710 0
DWIDTH 20 0
BBX 16 22 2 0
BITMAP
0420
03c0
0000
07e0
1818
300c
6006
6006
c003
c003
c003
c003
c003
c003
c003
c003
c003
6006
6006
300c
1818
07e0
ENDCHAR
STARTCHAR obreve
ENCODING 335
SWIDTH 482 0
DWIDTH 13 0
BBX 11 18 1 0
BITMAP
1100
1f00
0e00
0000
0000
1f00
3180
60c0
c060
c060
c060
c060
c060
c060
c060
60c0
3180
1f00
ENDCHAR
STARTCHAR Ohungarumlaut
ENCODING 336
SWIDTH 710 0
DWIDTH 20 0
BBX 16 22 2 0
BITMAP
0330
0440
0000
07e0
1818
300c
6006
6006
c003
c003
c003
c003
c003
c003
c003
c003
c003
6006
6006
300c
1818
07e0
ENDCHAR
STARTCHAR ohungarumlaut
ENCODING 337
SWIDTH 482 0
DWIDTH 13 0
BBX 11 18 1 0
BITMAP
0660
0880
1100
0000
0000
1f00
3180
60c0
c060
c060
c060
c060
c060
c060
c060
60c0
3180
1f00
ENDCHAR
STARTCHAR OE
ENCODING 338
SWIDTH 1006 0
DWIDTH 28 0
BBX 24 19 2 0
BITMAP
07fffe
1c1c0e
300c02
600c03
600c01
c00c11
c00c10
c00c30
c00ff0
c00c30
c00c10
c00c10
c00c00
c00c01
600c01
600c03
300c02
1c1c06
07fffe
ENDCHAR
STARTCHAR oe
ENCODING 339
SWIDTH 798 0
DWIDTH 22 0
BBX 20 13 1 0
BITMAP
1f0780
319840
60f020
c07030
c07ff0
c06000
c06000
c06000
c06000
c07010
60f830
319fe0
1f07c0
ENDCHAR
STARTCHAR Racute
ENCODING 340
SWIDTH 627 0
DWIDTH 18 0
BBX 16 22 1 0
BITMAP
0300
0400
0000
ffc0
3060
3030
3030
3030
3030
3030
30e0
3f80
3300
3180
30c0
30c0
3060
3030
3030
3018
300c
fc07
ENDCHAR
STARTCHAR racute
ENCODING 341
SWIDTH 345 0
DWIDTH 10 0
BBX 8 18 1 0
BITMAP
0c
10
00
00
00
27
eb
70
60
60
60
60
60
60
60
60
60
f8
ENDCHAR
STARTCHAR Rcommaaccent
ENCODING 342
SWIDTH 627 0
DWIDTH 18 0
BBX 16 25 1 -6
BITMAP
ffc0
3060
3030
3030
3030
3030
3030
3060
3f80
3180
30c0
30c0
3060
3030
3030
3018
3018
300c
fc07
0080
00e0
0030
0030
0030
01e0
ENDCHAR
STARTCHAR rcommaaccent
ENCODING 343
SWIDTH 345 0
DWIDTH 10 0
BBX 8 19 1 -6
BITMAP
27
eb
70
60
60
60
60
60
60
60
60
60
f8
20
38
0c
0c
0c
78
ENDCHAR
STARTCHAR Rcaron
ENCODING 344
SWIDTH 627 0
DWIDTH 18 0
BBX 16 22 1 0
BITMAP
1100
0a00
0400
ffc0
3060
3030
3030
3030
3030
3030
3060
3f80
3180
30c0
30c0
3060
3030
3030
3018
3018
300c
fc07
ENDCHAR
STARTCHAR rcaron
ENCODING 345
SWIDTH 345 0
DWIDTH 10 0
BBX 8 19 1 0
BITMAP
44
28
10
00
00
00
27
eb
70
60
60
60
60
60
60
60
60
60
f8
ENDCHAR
STARTCHAR Sacute
ENCODING 346
SWIDTH 502 0
DWIDTH 14 0
BBX 12 22 1 0
BITMAP
0600
0800
0000
1f20
60e0
4060
c020
c020
c020
e000
7000
3e00
0f80
01c0
0060
0030
8030
8010
c010
e020
7060
4f80
ENDCHAR
STARTCHAR sacute
ENCODING 347
SWIDTH 385 0
DWIDTH 11 0
BBX 8 17 1 0
BITMAP
0c
10
00
00
3c
42
81
c1
e0
70
3c
0e
03
81
81
c2
3c
ENDCHAR
STARTCHAR Scircumflex
ENCODING 348
SWIDTH 502 0
DWIDTH 14 0
BBX 12 23 1 0
BITMAP
0400
0a00
1100
0000
1f20
60e0
4060
c020
c020
c020
e000
7000
3e00
0f80
01c0
0060
0030
8030
8010
c010
e020
7060
4f80
ENDCHAR
STARTCHAR scircumflex
ENCODING 349
SWIDTH 385 0
DWIDTH 11 0
BBX 8 18 1 0
BITMAP
08
14
22
00
00
3c
42
81
c1
e0
70
3c
0e
03
81
81
c2
3c
ENDCHAR
STARTCHAR Scedilla
ENCODING 350
SWIDTH 502 0
DWIDTH 14 0
BBX 12 25 1 -6
BITMAP
1f20
60e0
4060
c020
c020
c020
e000
7000
3e00
0f80
01c0
0060
0030
8030
8010
c010
e020
7060
4f80
0200
0380
00c0
00c0
00c0
0780
ENDCHAR
STARTCHAR scedilla
ENCODING 351
SWIDTH 385 0
DWIDTH 11 0
BBX 8 19 1 -6
BITMAP
3c
42
81
c1
e0
70
3c
0e
03
81
81
c2
3c
08
0e
03
03
03
1e
ENDCHAR
STARTCHAR Scaron
ENCODING 352
SWIDTH 502 0
DWIDTH 14 0
BBX 12 22 1 0
BITMAP
1100
0a00
0400
1f20
60e0
4060
c020
c020
c020
e000
7000
3e00
0f80
01c0
0060
0030
8030
8010
c010
e020
7060
4f80
ENDCHAR
STARTCHAR scaron
ENCODING 353
SWIDTH 385 0
DWIDTH 11 0
BBX 8 18 1 0
BITMAP
22
14
08
00
00
3c
42
81
c1
e0
70
3c
0e
03
81
81
c2
3c
ENDCHAR
STARTCHAR uni0162
ENCODING 354
SWIDTH 741 0
DWIDTH 21 0
BBX 18 25 2 -6
BITMAP
7fff80
60c180
c0c0c0
80c040
80c040
00c000
00c000
00c000
00c000
00c000
00c000
00c000
00c000
00c000
00c000
00c000
00c000
01e000
07f800
008000
00e000
003000
003000
003000
01e000
ENDCHAR
STARTCHAR uni0163
ENCODING 355
SWIDTH 265 0
DWIDTH 7 0
BBX 7 22 1 -6
BITMAP
20
60
60
f8
60
60
60
60
60
60
60
60
60
60
64
38
10
1c
06
06
06
3c
ENDCHAR
STARTCHAR Tcaron
ENCODING 356
SWIDTH 741 0
DWIDTH 21 0
BBX 18 22 2 0
BITMAP
022000
014000
008000
7fff80
60c180
c0c0c0
80c040
80c040
00c000
00c000
00c000
00c000
00c000
00c000
00c000
00c000
00c000
00c000
00c000
00c000
01e000
07f800
ENDCHAR
STARTCHAR tcaron
ENCODING 357
SWIDTH 265 0
DWIDTH 7 0
BBX 6 20 1 0
BITMAP
88
50
20
00
20
60
60
f8
60
60
60
60
60
60
60
60
60
60
64
38
ENDCHAR
STARTCHAR Tbar
ENCODING 358
SWIDTH 741 0
DWIDTH 21 0
BBX 18 19 2 0
BITMAP
7fff80
60c180
c0c0c0
80c040
80c040
00c000
03f000
00c000
00c000
00c000
00c000
00c000
00c000
00c000
00c000
00c000
00c000
01e000
07f800
ENDCHAR
STARTCHAR tbar
ENCODING 359
SWIDTH 265 0
DWIDTH 7 0
BBX 7 16 0 0
BITMAP
10
30
30
7c
30
30
30
fc
30
30
30
30
30
30
32
1c
ENDCHAR
STARTCHAR Utilde
ENCODING 360
SWIDTH 656 0
DWIDTH 18 0
BBX 16 22 1 0
BITMAP
0190
0260
0000
fe1f
3004
3004
3004
3004
3004
3004
3004
3004
3004
3004
3004
3004
3004
3004
3804
180c
1c18
07f0
ENDCHAR
STARTCHAR utilde
ENCODING 361
SWIDTH 524 0
DWIDTH 15 0
BBX 14 18 1 0
BITMAP
0680
0b00
0000
0000
0000
f0f0
3030
3030
3030
3030
3030
3030
3030
3030
3030
307c
38f8
1fa0
ENDCHAR
STARTCHAR Umacron
ENCODING 362
SWIDTH 656 0
DWIDTH 18 0
BBX 16 22 1 0
BITMAP
03f0
0000
0000
fe1f
3004
3004
3004
3004
3004
3004
3004
3004
3004
3004
3004
3004
3004
3004
3804
180c
1c18
07f0
ENDCHAR
STARTCHAR umacron
ENCODING 363
SWIDTH 524 0
DWIDTH 15 0
BBX 14 16 1 0
BITMAP
1fc0
0000
0000
f0f0
3030
3030
3030
3030
3030
3030
3030
3030
3030
303c
3878
1fa0
ENDCHAR
STARTCHAR Ubreve
ENCODING 364
SWIDTH 656 0
DWIDTH 18 0
BBX 16 22 1 0
BITMAP
0210
01e0
0000
fe1f
3004
3004
3004
3004
3004
3004
3004
3004
3004
3004
3004
3004
3004
3004
3804
180c
1c18
07f0
ENDCHAR
STARTCHAR ubreve
ENCODING 365
SWIDTH 524 0
DWIDTH 15 0
BBX 14 18 1 0
BITMAP
0880
0f80
0700
0000
0000
f0f0
3030
3030
3030
3030
3030
3030
3030
3030
3030
303c
3878
1fa0
ENDCHAR
STARTCHAR Uring
ENCODING 366
SWIDTH 656 0
DWIDTH 18 0
BBX 16 22 1 0
BITMAP
00c0
0120
0120
fccf
3004
3004
3004
3004
3004
3004
3004
3004
3004
3004
3004
3004
3004
3004
3804
180c
1c18
07f0
ENDCHAR
STARTCHAR uring
ENCODING 367
SWIDTH 524 0
DWIDTH 15 0
BBX 14 19 1 0
BITMAP
0600
0900
0900
0600
0000
0000
f0f0
3030
3030
3030
3030
3030
3030
3030
3030
3030
303c
3878
1fa0
ENDCHAR
STARTCHAR Uhungarumlaut
ENCODING 368
SWIDTH 656 0
DWIDTH 18 0
BBX 16 22 1 0
BITMAP
0198
0220
0000
fe1f
3004
3004
3004
3004
3004
3004
3004
3004
3004
3004
3004
3004
3004
3004
3804
180c
1c18
07f0
ENDCHAR
STARTCHAR uhungarumlaut
ENCODING 369
SWIDTH 524 0
DWIDTH 15 0
BBX 14 17 1 0
BITMAP
0cc0
1100
0000
0000
f0f0
3030
3030
3030
3030
3030
3030
3030
3030
3030
303c
3878
1fa0
ENDCHAR
STARTCHAR Uogonek
ENCODING 370
SWIDTH 656 0
DWIDTH 18 0
BBX 16 24 1 -5
BITMAP
fe1f
3004
3004
3004
3004
3004
3004
3004
3004
3004
3004
3004
3004
3004
3004
3804
180c
1c18
07f0
0100
0200
0200
0320
01c0
ENDCHAR
STARTCHAR uogonek
ENCODING 371
SWIDTH 524 0
DWIDTH 15 0
BBX 14 18 1 -5
BITMAP
f0f0
3030
3030
3030
3030
3030
3030
3030
3030
3030
303c
3878
1fa0
0800
1000
1000
1880
0f00
ENDCHAR
STARTCHAR Wcircumflex
ENCODING 372
SWIDTH 1022 0
DWIDTH 29 0
BBX 27 23 1 0
BITMAP
00100000
00280000
00440000
00000000
f87e0fe0
60380380
30180300
30180300
180c0200
180c0600
180c0600
0c0e0400
0c1b0c00
0c130c00
06130800
06319800
06219000
03219000
0360f000
0340e000
01c0e000
01c06000
01804000
ENDCHAR
STARTCHAR wcircumflex
ENCODING 373
SWIDTH 629 0
DWIDTH 18 0
BBX 18 19 0 0
BITMAP
008000
014000
022000
000000
000000
000000
fbc7c0
718300
318300
30c200
30c200
18c400
18c400
19e400
0d6800
0e6800
0e3800
043000
041000
ENDCHAR
STARTCHAR Ycircumflex
ENCODING 374
SWIDTH 653 0
DWIDTH 18 0
BBX 17 23 2 0
BITMAP
010000
028000
044000
000000
fc3f80
300e00
301c00
181800
183000
0c3000
0c6000
06c000
078000
030000
030000
030000
030000
030000
030000
030000
030000
030000
0fc000
ENDCHAR
STARTCHAR ycircumflex
ENCODING 375
SWIDTH 440 0
DWIDTH 12 0
BBX 13 21 0 -3
BITMAP
0200
0500
0880
0000
0000
f9f8
3060
3060
3040
1840
1880
1880
0d00
0f00
0e00
0c00
0400
0c00
2800
7000
7000
ENDCHAR
STARTCHAR Ydieresis
ENCODING 376
SWIDTH 653 0
DWIDTH 18 0
BBX 17 22 2 0
BITMAP
066000
066000
000000
fc3f80
300e00
301c00
181800
183000
0c3000
0c6000
06c000
078000
030000
030000
030000
030000
030000
030000
030000
030000
030000
0fc000
ENDCHAR
STARTCHAR Zacute
ENCODING 377
SWIDTH 582 0
DWIDTH 16 0
BBX 13 22 2 0
BITMAP
00c0
0100
0000
7ff8
7838
6030
c060
80c0
80c0
0180
0180
0300
0600
0600
0c00
1800
1808
3008
3018
6018
e070
fff0
ENDCHAR
STARTCHAR zacute
ENCODING 378
SWIDTH 404 0
DWIDTH 11 0
BBX 9 17 1 0
BITMAP
0300
0400
0000
0000
7f80
4300
8300
8600
0600
0c00
0c00
1800
3000
3080
6080
c100
ff00
ENDCHAR
STARTCHAR Zdotaccent
ENCODING 379
SWIDTH 582 0
DWIDTH 16 0
BBX 13 22 2 0
BITMAP
0180
0180
0000
7ff8
7838
6030
c060
80c0
80c0
0180
0180
0300
0600
0600
0c00
1800
1808
3008
3018
6018
e070
fff0
ENDCHAR
STARTCHAR zdotaccent
ENCODING 380
SWIDTH 404 0
DWIDTH 11 0
BBX 9 17 1 0
BITMAP
0c00
0c00
0000
0000
7f80
4300
8300
8600
0600
0c00
0c00
1800
3000
3080
6080
c100
ff00
ENDCHAR
STARTCHAR Zcaron
ENCODING 381
SWIDTH 582 0
DWIDTH 16 0
BBX 13 22 2 0
BITMAP
0440
0280
0100
7ff8
7838
6030
c060
80c0
80c0
0180
0180
0300
0600
0600
0c00
1800
1808
3008
3018
6018
e070
fff0
ENDCHAR
STARTCHAR zcaron
ENCODING 382
SWIDTH 404 0
DWIDTH 11 0
BBX 9 19 1 0
BITMAP
1100
0a00
0400
0000
0000
0000
7f80
4300
8300
8600
0600
0c00
0c00
1800
3000
3080
6080
c100
ff00
ENDCHAR
STARTCHAR longs
ENCODING 383
SWIDTH 238 0
DWIDTH 7 0
BBX 7 19 0 0
BITMAP
0c
36
36
30
30
30
30
70
30
30
30
30
30
30
30
30
30
30
fc
ENDCHAR
STARTCHAR uni0180
ENCODING 384
SWIDTH 489 0
DWIDTH 14 0
BBX 13 19 0 0
BITMAP
1000
7000
3000
3000
fc00
3000
37e0
3830
3030
3018
3018
3018
3018
3018
3018
3010
3030
3860
2780
ENDCHAR
STARTCHAR uni0181
ENCODING 385
SWIDTH 553 0
DWIDTH 15 0
BBX 15 19 -1 0
BITMAP
7ff0
ce18
ec0c
4c0c
0c0c
0c0c
0c18
0c30
0ff0
0c18
0c0c
0c06
0c06
0c06
0c06
0c0c
0c1c
0e38
3ff0
ENDCHAR
STARTCHAR uni0182
ENCODING 386
SWIDTH 583 0
DWIDTH 16 0
BBX 15 19 1 0
BITMAP
fff8
1838
1808
1804
1804
1802
1800
1800
1800
1f80
18e0
1860
1830
1830
1830
1830
1860
18e0
ff80
ENDCHAR
STARTCHAR uni0183
ENCODING 387
SWIDTH 583 0
DWIDTH 16 0
BBX 12 19 4 0
BITMAP
ffc0
c1c0
c040
c020
c020
c010
c000
c000
c000
fc00
c700
c300
c180
c180
c180
c180
c380
c700
fc00
ENDCHAR
STARTCHAR uni0184
ENCODING 388
SWIDTH 489 0
DWIDTH 14 0
BBX 12 19 0 0
BITMAP
1000
7000
f000
3000
3000
3000
37c0
3860
3030
3030
3030
3030
3030
3030
3030
3030
3060
30c0
2f80
ENDCHAR
STARTCHAR uni0185
ENCODING 389
SWIDTH 489 0
DWIDTH 14 0
BBX 11 19 1 0
BITMAP
2000
e000
6000
6000
6000
6000
6f80
70c0
60c0
6060
6060
6060
6060
6060
6060
60c0
60c0
2080
1f00
ENDCHAR
STARTCHAR uni0186
ENCODING 390
SWIDTH 601 0
DWIDTH 17 0
BBX 15 19 1 0
BITMAP
43c0
5c30
6018
400c
800c
8006
8006
0006
0006
0006
0006
0006
4006
400c
400c
6018
7030
4860
47c0
ENDCHAR
STARTCHAR uni0187
ENCODING 391
SWIDTH 601 0
DWIDTH 17 0
BBX 17 20 1 0
BITMAP
000380
0fc580
183c00
301c00
600c00
600c00
c00400
c00000
c00000
c00000
c00000
c00000
c00000
c00000
c00400
c00400
600800
601800
307800
0f8800
ENDCHAR
STARTCHAR uni0188
ENCODING 392
SWIDTH 424 0
DWIDTH 12 0
BBX 12 13 1 0
BITMAP
1e70
21b0
6180
4180
c000
c000
c000
c000
c000
e040
6080
3f00
1e00
ENDCHAR
STARTCHAR uni0189
ENCODING 393
SWIDTH 710 0
DWIDTH 20 0
BBX 16 19 1 0
BITMAP
ffe0
3038
300c
3006
3006
3003
3003
3003
3003
fc03
3003
3003
3003
3006
3006
300c
3018
3060
ff80
ENDCHAR
STARTCHAR uni018A
ENCODING 394
SWIDTH 650 0
DWIDTH 18 0
BBX 18 19 -1 0
BITMAP
7ffc00
cc0600
ec0300
4c0180
0c0180
0c00c0
0c00c0
0c00c0
0c00c0
0c00c0
0c00c0
0c00c0
0c00c0
0c0180
0c0180
0c0300
0c0600
0c1c00
3ff000
ENDCHAR
STARTCHAR uni018B
ENCODING 395
SWIDTH 583 0
DWIDTH 16 0
BBX 15 19 1 0
BITMAP
7ffe
7830
6030
c030
c030
8030
0030
0030
0030
07f0
0c30
1830
3030
3030
3030
3030
1830
1e30
07fe
ENDCHAR
STARTCHAR uni018C
ENCODING 396
SWIDTH 487 0
DWIDTH 14 0
BBX 12 19 1 0
BITMAP
1fe0
1860
3060
2060
4060
0060
1f60
30e0
6060
6060
c060
c060
c060
c060
c060
c060
6060
30f0
1f40
ENDCHAR
STARTCHAR uni018D
ENCODING 397
SWIDTH 482 0
DWIDTH 13 0
BBX 11 17 1 -4
BITMAP
1f00
3180
60c0
c060
c060
c060
c060
c060
c060
c060
60c0
3180
1f00
c400
c400
8400
7800
ENDCHAR
STARTCHAR uni018E
ENCODING 398
SWIDTH 584 0
DWIDTH 16 0
BBX 14 19 1 0
BITMAP
7ffc
6060
4060
8060
8060
8060
0060
0860
0860
0c60
0fe0
0c60
0860
8860
8060
8060
4060
6060
7ffc
ENDCHAR
STARTCHAR uni018F
ENCODING 399
SWIDTH 579 0
DWIDTH 16 0
BBX 14 19 1 0
BITMAP
1f80
3fe0
6070
c038
8018
800c
000c
000c
000c
000c
000c
000c
fffc
c00c
c018
4018
6030
3060
0f80
ENDCHAR
STARTCHAR uni0190
ENCODING 400
SWIDTH 539 0
DWIDTH 15 0
BBX 13 19 1 0
BITMAP
1fa0
38e0
7060
6030
6030
6010
6000
3000
1c00
1f00
7000
6000
c000
c000
c018
c010
6030
3860
0fc0
ENDCHAR
STARTCHAR uni0191
ENCODING 401
SWIDTH 556 0
DWIDTH 16 0
BBX 14 23 0 -4
BITMAP
fff8
1818
1808
180c
1804
1824
1820
1860
1fe0
1860
1820
1820
1800
1800
1800
1800
1800
1800
1800
1800
1800
d000
e000
ENDCHAR
STARTCHAR florin
ENCODING 402
SWIDTH 272 0
DWIDTH 8 0
BBX 8 23 -1 -4
BITMAP
06
1b
18
18
18
18
18
3c
18
18
18
18
18
18
18
18
18
18
18
18
18
d8
60
ENDCHAR
STARTCHAR uni0193
ENCODING 403
SWIDTH 610 0
DWIDTH 17 0
BBX 17 20 1 0
BITMAP
000380
07c580
0c3c00
181c00
380c00
300400
600400
600000
c00000
c00000
c03f00
c00c00
c00c00
c00c00
600c00
600c00
300c00
300c00
1c1400
07e000
ENDCHAR
STARTCHAR uni0194
ENCODING 404
SWIDTH 704 0
DWIDTH 20 0
BBX 17 23 1 -4
BITMAP
f81f80
600700
300600
300400
300400
180400
180800
0c0800
0c1000
0c1000
061000
062000
062000
032000
034000
034000
01c000
018000
00c000
00c000
016000
016000
00c000
ENDCHAR
STARTCHAR uni0195
ENCODING 405
SWIDTH 683 0
DWIDTH 19 0
BBX 17 19 1 0
BITMAP
300000
700000
f00000
300000
300000
300000
37c100
386380
306180
306080
306080
306080
306080
306080
306080
306080
306100
303300
fc1e00
ENDCHAR
STARTCHAR uni0196
ENCODING 406
SWIDTH 262 0
DWIDTH 7 0
BBX 6 22 2 -3
BITMAP
20
60
e0
60
60
60
60
60
60
60
60
60
60
60
60
60
60
60
60
60
2c
1c
ENDCHAR
STARTCHAR uni0197
ENCODING 407
SWIDTH 297 0
DWIDTH 8 0
BBX 6 19 1 0
BITMAP
fc
30
30
30
30
30
30
30
30
fc
30
30
30
30
30
30
30
30
fc
ENDCHAR
STARTCHAR uni0198
ENCODING 408
SWIDTH 662 0
DWIDTH 19 0
BBX 18 19 1 0
BITMAP
ff0000
180380
180cc0
1811c0
182080
184000
188000
190000
1b0000
1f8000
198000
18c000
186000
183000
183000
181800
180c00
180e00
ff1f80
ENDCHAR
STARTCHAR uni0199
ENCODING 409
SWIDTH 526 0
DWIDTH 15 0
BBX 13 19 1 0
BITMAP
1c00
3600
3000
3000
3000
3000
33f0
31c0
3080
3100
3200
3400
3e00
3300
3100
3180
30c0
30c0
fdf8
ENDCHAR
STARTCHAR uni019A
ENCODING 410
SWIDTH 262 0
DWIDTH 7 0
BBX 6 19 1 0
BITMAP
10
70
f0
30
30
30
30
30
30
fc
30
30
30
30
30
30
30
30
fc
ENDCHAR
STARTCHAR uni019B
ENCODING 411
SWIDTH 388 0
DWIDTH 11 0
BBX 10 18 0 0
BITMAP
e100
d200
0c00
0800
1400
2600
4600
0d00
0d00
0d00
0c80
1880
1880
1840
1840
3040
30c0
fcc0
ENDCHAR
STARTCHAR uni019C
ENCODING 412
SWIDTH 785 0
DWIDTH 22 0
BBX 20 19 1 0
BITMAP
fdfbf0
3060c0
3060c0
3060c0
3060c0
3060c0
3060c0
3060c0
3060c0
3060c0
3060c0
3060c0
3060c0
3060c0
3060c0
3060c0
30e1f0
3972e0
1e3c80
ENDCHAR
STARTCHAR uni019D
ENCODING 413
SWIDTH 730 0
DWIDTH 20 0
BBX 19 22 1 -3
BITMAP
780fe0
180380
1c0100
160100
160100
130100
118100
118100
10c100
106100
106100
103100
101900
101900
100d00
100d00
100700
100300
100100
100000
d00000
e00000
ENDCHAR
STARTCHAR uni019E
ENCODING 414
SWIDTH 510 0
DWIDTH 14 0
BBX 13 18 1 -5
BITMAP
17c0
f8e0
7060
3060
3060
3060
3060
3060
3060
3060
3060
3060
fc60
0060
0060
0060
0060
01f8
ENDCHAR
STARTCHAR uni019F
ENCODING 415
SWIDTH 671 0
DWIDTH 19 0
BBX 15 20 2 -1
BITMAP
07c0
1c30
3018
300c
600c
600c
c006
c006
d016
dff6
dff6
d016
c006
c006
6004
600c
300c
3018
1c30
07c0
ENDCHAR
STARTCHAR Ohorn
ENCODING 416
SWIDTH 751 0
DWIDTH 21 0
BBX 19 21 2 -1
BITMAP
0000e0
07e0e0
1c38c0
300d80
200400
600600
400200
c00300
c00300
c00300
c00300
c00300
c00300
c00300
c00300
400200
600600
200400
300c00
1c3800
07e000
ENDCHAR
STARTCHAR ohorn
ENCODING 417
SWIDTH 501 0
DWIDTH 14 0
BBX 12 17 1 0
BITMAP
0070
0070
0060
00c0
1f00
3180
60c0
c060
c060
c060
c060
c060
c060
c060
60c0
3180
1f00
ENDCHAR
STARTCHAR uni01A2
ENCODING 418
SWIDTH 984 0
DWIDTH 28 0
BBX 24 24 2 -5
BITMAP
07e1e0
181a10
300c08
600608
60060c
c0030c
c0030c
c0030c
c0030c
c0030c
c0030c
c0030c
c0030c
c0030c
60060c
60060c
300c0c
18180c
07e00c
00000c
00000c
00000c
00000c
00003f
ENDCHAR
STARTCHAR uni01A3
ENCODING 419
SWIDTH 664 0
DWIDTH 19 0
BBX 18 20 1 -5
BITMAP
003c00
004600
1e8200
318300
60c300
c06300
c06300
c06300
c06300
c06300
c06300
c06300
60c300
318300
1f0300
000300
000300
000300
000300
000fc0
ENDCHAR
STARTCHAR uni01A4
ENCODING 420
SWIDTH 491 0
DWIDTH 14 0
BBX 14 19 -1 0
BITMAP
7ff0
cc18
ec0c
4c0c
0c0c
0c0c
0c18
0c30
0fc0
0c00
0c00
0c00
0c00
0c00
0c00
0c00
0c00
0c00
3f00
ENDCHAR
STARTCHAR uni01A5
ENCODING 421
SWIDTH 524 0
DWIDTH 15 0
BBX 14 20 1 -4
BITMAP
0038
004c
004c
1780
78e0
3060
3030
3030
3030
3030
3030
3030
3020
3060
3840
3780
3000
3000
3000
fc00
ENDCHAR
STARTCHAR uni01A6
ENCODING 422
SWIDTH 627 0
DWIDTH 18 0
BBX 17 21 1 0
BITMAP
fc0000
300000
300000
3fe000
303000
303000
303000
303000
303000
306000
3fc000
318000
30c000
30c000
306000
306000
303000
301800
301800
300e00
fc0780
ENDCHAR
STARTCHAR uni01A7
ENCODING 423
SWIDTH 502 0
DWIDTH 14 0
BBX 12 19 1 0
BITMAP
47c0
7860
7030
6030
4030
4030
0070
00e0
03c0
0f00
3c00
7000
e000
c010
c030
c030
6070
30f0
1f10
ENDCHAR
STARTCHAR uni01A8
ENCODING 424
SWIDTH 385 0
DWIDTH 11 0
BBX 8 13 1 0
BITMAP
3e
63
43
43
07
0e
3c
70
e0
c1
c1
43
3e
ENDCHAR
STARTCHAR uni01A9
ENCODING 425
SWIDTH 678 0
DWIDTH 19 0
BBX 15 18 2 0
BITMAP
fffc
300c
1806
1802
0c02
0c00
0600
0300
0380
0300
0600
0600
0c02
0c02
1806
300c
301c
fffc
ENDCHAR
STARTCHAR uni01AA
ENCODING 426
SWIDTH 283 0
DWIDTH 8 0
BBX 10 24 0 -5
BITMAP
3800
4400
8600
8600
4e00
3600
0600
0600
0600
0600
0600
0600
0600
0600
0600
0600
0600
0600
0600
0600
0600
0600
06c0
0180
ENDCHAR
STARTCHAR uni01AB
ENCODING 427
SWIDTH 265 0
DWIDTH 7 0
BBX 6 20 1 -4
BITMAP
20
60
60
f8
60
60
60
60
60
60
60
60
60
60
64
38
08
08
38
30
ENDCHAR
STARTCHAR uni01AC
ENCODING 428
SWIDTH 741 0
DWIDTH 21 0
BBX 19 19 1 0
BITMAP
7fffc0
80c1c0
e0c0c0
c0c060
00c020
00c000
00c000
00c000
00c000
00c000
00c000
00c000
00c000
00c000
00c000
00c000
00c000
00c000
03f000
ENDCHAR
STARTCHAR uni01AD
ENCODING 429
SWIDTH 265 0
DWIDTH 7 0
BBX 6 19 1 0
BITMAP
1c
2c
60
60
60
60
f8
60
60
60
60
60
60
60
60
60
60
64
38
ENDCHAR
STARTCHAR uni01AE
ENCODING 430
SWIDTH 741 0
DWIDTH 21 0
BBX 18 22 2 -3
BITMAP
7fff80
70c380
e0c1c0
c0c0c0
80c040
00c000
00c000
00c000
00c000
00c000
00c000
00c000
00c000
00c000
00c000
00c000
00c000
00c000
00c000
00c000
00d800
007800
ENDCHAR
STARTCHAR Uhorn
ENCODING 431
SWIDTH 656 0
DWIDTH 18 0
BBX 21 21 2 0
BITMAP
000038
000038
fc3e30
300860
300800
300800
300800
300800
300800
300800
300800
300800
300800
300800
300800
300800
300800
301000
181000
0c2000
07c000
ENDCHAR
STARTCHAR uhorn
ENCODING 432
SWIDTH 524 0
DWIDTH 15 0
BBX 14 19 0 0
BITMAP
0018
001c
000c
0008
0030
0000
f0f0
3030
3030
3030
3030
3030
3030
3030
3030
3030
303c
38f8
1f20
ENDCHAR
STARTCHAR uni01B1
ENCODING 433
SWIDTH 680 0
DWIDTH 19 0
BBX 17 21 0 0
BITMAP
3c1e00
641100
441100
041800
0c1800
080800
180c00
300600
600300
600300
c00180
c00180
c00180
c00180
c00180
c00380
600300
600700
300600
181c00
07f000
ENDCHAR
STARTCHAR uni01B2
ENCODING 434
SWIDTH 671 0
DWIDTH 19 0
BBX 16 19 1 0
BITMAP
0006
fc06
3001
3001
3001
3001
3001
3001
3001
3001
3001
3001
3001
3001
3002
3002
1804
1808
07f0
ENDCHAR
STARTCHAR uni01B3
ENCODING 435
SWIDTH 653 0
DWIDTH 18 0
BBX 19 19 -1 0
BITMAP
7007e0
980180
cc0300
660200
030400
030400
018800
00d000
00e000
006000
006000
006000
006000
006000
006000
006000
006000
006000
01f800
ENDCHAR
STARTCHAR uni01B4
ENCODING 436
SWIDTH 479 0
DWIDTH 13 0
BBX 14 16 -1 -3
BITMAP
70fc
9830
d830
d820
0c20
0c40
0c40
0680
0780
0700
0600
0200
0600
1400
3800
3800
ENDCHAR
STARTCHAR uni01B5
ENCODING 437
SWIDTH 582 0
DWIDTH 16 0
BBX 13 19 2 0
BITMAP
7ff8
7030
4030
c060
c0c0
80c0
0180
0180
1fc0
0600
0600
0c00
1c00
1808
3008
3018
6010
c070
fff0
ENDCHAR
STARTCHAR uni01B6
ENCODING 438
SWIDTH 404 0
DWIDTH 11 0
BBX 9 13 1 0
BITMAP
7f80
4300
4300
4600
0c00
3f00
1800
1800
3000
3080
6080
c100
ff00
ENDCHAR
STARTCHAR uni01B7
ENCODING 439
SWIDTH 490 0
DWIDTH 14 0
BBX 10 19 3 0
BITMAP
7fc0
4180
8300
8600
0600
0c00
1800
3c00
3f00
0380
01c0
00c0
00c0
00c0
40c0
e080
c180
c300
7c00
ENDCHAR
STARTCHAR uni01B8
ENCODING 440
SWIDTH 465 0
DWIDTH 13 0
BBX 10 19 2 0
BITMAP
ff80
6080
3040
1840
1800
0c00
0600
1f00
3f00
7000
e000
c000
c000
c000
c000
61c0
70c0
1cc0
0f80
ENDCHAR
STARTCHAR uni01B9
ENCODING 441
SWIDTH 465 0
DWIDTH 13 0
BBX 10 19 2 -6
BITMAP
ff80
6080
3040
1840
1800
0c00
0600
1f00
3f00
7000
e000
c000
c000
c000
c000
61c0
70c0
1cc0
0f80
ENDCHAR
STARTCHAR uni01BA
ENCODING 442
SWIDTH 465 0
DWIDTH 13 0
BBX 9 19 3 -6
BITMAP
7f80
6300
c600
cc00
1800
1c00
3f00
0780
0180
0180
0180
0700
1e00
7000
c000
c100
c100
7f00
3e00
ENDCHAR
STARTCHAR uni01BB
ENCODING 443
SWIDTH 409 0
DWIDTH 11 0
BBX 9 16 2 0
BITMAP
3c00
4e00
8700
8300
0300
0600
0600
0c00
3f00
1000
2000
4000
4000
8080
ff00
ff00
ENDCHAR
STARTCHAR uni01BC
ENCODING 444
SWIDTH 441 0
DWIDTH 12 0
BBX 12 19 0 0
BITMAP
ffe0
3fe0
3020
3000
3000
3000
3f00
3fc0
20e0
0060
0070
0030
0030
0030
0070
3860
78e0
31c0
1f00
ENDCHAR
STARTCHAR uni01BD
ENCODING 445
SWIDTH 355 0
DWIDTH 10 0
BBX 9 13 0 0
BITMAP
ff00
3f00
2100
2000
3e00
3f00
0380
0180
0180
0180
7380
6300
3e00
ENDCHAR
STARTCHAR uni01BE
ENCODING 446
SWIDTH 441 0
DWIDTH 12 0
BBX 12 19 0 0
BITMAP
2000
2000
f800
2000
2000
2000
2e00
3f80
21c0
00e0
0070
0030
0030
0030
0030
3860
38c0
21c0
1f00
ENDCHAR
STARTCHAR uni01BF
ENCODING 447
SWIDTH 524 0
DWIDTH 15 0
BBX 12 17 1 -4
BITMAP
1780
78e0
3060
3030
3030
3030
3030
3030
3030
3060
3040
3080
3300
3400
3800
3000
f800
ENDCHAR
STARTCHAR uni01C0
ENCODING 448
SWIDTH 155 0
DWIDTH 4 0
BBX 1 20 1 0
BITMAP
80
80
80
80
80
80
80
80
80
80
80
80
80
80
80
80
80
80
80
80
ENDCHAR
STARTCHAR uni01C1
ENCODING 449
SWIDTH 269 0
DWIDTH 7 0
BBX 5 20 1 0
BITMAP
d8
d8
d8
d8
d8
d8
d8
d8
d8
d8
d8
d8
d8
d8
d8
d8
d8
d8
d8
d8
ENDCHAR
STARTCHAR uni01C2
ENCODING 450
SWIDTH 365 0
DWIDTH 10 0
BBX 8 20 1 0
BITMAP
18
18
18
18
18
18
18
18
ff
18
18
ff
18
18
18
18
18
18
18
18
ENDCHAR
STARTCHAR uni01C3
ENCODING 451
SWIDTH 319 0
DWIDTH 9 0
BBX 3 20 2 -1
BITMAP
40
e0
e0
e0
e0
e0
e0
e0
e0
40
40
40
40
40
40
40
00
40
e0
40
ENDCHAR
STARTCHAR uni01C4
ENCODING 452
SWIDTH 1315 0
DWIDTH 37 0
BBX 34 22 1 0
BITMAP
0000004400
0000002800
0000001000
fff003ff80
3018038180
300c020300
3006040300
3006040600
3006040c00
3003000c00
3003001800
3003001800
3003003000
3003006000
3003006000
300200c000
3006018040
3004018040
300c030080
3018070180
3020060380
ffc00fff00
ENDCHAR
STARTCHAR uni01C5
ENCODING 453
SWIDTH 1123 0
DWIDTH 31 0
BBX 28 19 1 0
BITMAP
fff00210
30180120
300c00c0
30060000
30060000
30060000
300307f0
30030c30
30030860
30030860
300300c0
300300c0
30020180
30060300
30040300
300c0610
30180610
30200c20
ffc01fe0
ENDCHAR
STARTCHAR uni01C6
ENCODING 454
SWIDTH 903 0
DWIDTH 25 0
BBX 22 19 1 0
BITMAP
004084
01c048
00c030
00c000
00c000
00c000
1ec1fc
31c10c
60c20c
c0c218
c0c030
c0c030
c0c060
c0c0c0
c0c0c0
c0c184
60e184
21c308
1e87f8
ENDCHAR
STARTCHAR uni01C7
ENCODING 455
SWIDTH 905 0
DWIDTH 25 0
BBX 23 22 1 -3
BITMAP
fc007e
300018
300018
300018
300018
300018
300018
300018
300018
300018
300018
300018
300018
300018
300418
300418
300818
303818
fff818
000198
0001b0
0000e0
ENDCHAR
STARTCHAR uni01C8
ENCODING 456
SWIDTH 854 0
DWIDTH 24 0
BBX 20 23 1 -4
BITMAP
fc0000
300000
300030
300030
300000
300000
300010
300070
300030
300030
300030
300030
300030
300030
300430
300430
300830
303830
fff830
000030
0001b0
0001a0
0001c0
ENDCHAR
STARTCHAR uni01C9
ENCODING 457
SWIDTH 549 0
DWIDTH 15 0
BBX 11 23 1 -4
BITMAP
1000
7000
f060
3060
3000
3000
3020
30e0
3060
3060
3060
3060
3060
3060
3060
3060
3060
3060
fc60
0060
0160
0340
0180
ENDCHAR
STARTCHAR uni01CA
ENCODING 458
SWIDTH 1057 0
DWIDTH 30 0
BBX 28 22 1 -3
BITMAP
780fe3f0
1c0380c0
1c0100c0
160100c0
120100c0
130100c0
118100c0
118100c0
10c100c0
106100c0
106100c0
103100c0
101100c0
101900c0
100d00c0
100d00c0
100700c0
380300c0
fe0300c0
00000c80
00000d80
00000f00
ENDCHAR
STARTCHAR uni01CB
ENCODING 459
SWIDTH 1017 0
DWIDTH 28 0
BBX 24 23 1 -4
BITMAP
780fe0
1c0380
1c0103
160103
120100
130100
118101
118107
10c103
106103
106103
103103
101103
101903
100d03
100d03
100703
380303
fe0303
000003
00000b
00001a
00000c
ENDCHAR
STARTCHAR uni01CC
ENCODING 460
SWIDTH 797 0
DWIDTH 22 0
BBX 18 21 1 -4
BITMAP
0000c0
0000c0
000000
000000
13c040
7ce1c0
f060c0
3060c0
3060c0
3060c0
3060c0
3060c0
3060c0
3060c0
3060c0
3060c0
fdf8c0
0000c0
0002c0
000680
000300
ENDCHAR
STARTCHAR uni01CD
ENCODING 461
SWIDTH 732 0
DWIDTH 20 0
BBX 18 23 1 0
BITMAP
011000
00a000
004000
000000
004000
00e000
006000
00e000
00b000
013000
013000
021800
021800
03f800
040c00
040c00
080c00
080600
080600
100600
100300
300300
fc0fc0
ENDCHAR
STARTCHAR uni01CE
ENCODING 462
SWIDTH 400 0
DWIDTH 11 0
BBX 10 18 1 0
BITMAP
2200
1400
0800
0000
0000
3e00
4700
c300
c300
8300
0700
3b00
6300
c300
c300
c700
cb40
7380
ENDCHAR
STARTCHAR uni01CF
ENCODING 463
SWIDTH 297 0
DWIDTH 8 0
BBX 6 22 1 0
BITMAP
44
28
10
fc
30
30
30
30
30
30
30
30
30
30
30
30
30
30
30
30
30
fc
ENDCHAR
STARTCHAR uni01D0
ENCODING 464
SWIDTH 262 0
DWIDTH 7 0
BBX 6 18 1 0
BITMAP
88
50
20
00
00
10
f0
30
30
30
30
30
30
30
30
30
30
fc
ENDCHAR
STARTCHAR uni01D1
ENCODING 465
SWIDTH 710 0
DWIDTH 20 0
BBX 16 23 2 -1
BITMAP
0440
0280
0100
07e0
1c38
300c
2004
6006
4002
c003
c003
c003
c003
c003
c003
c003
c003
4002
6006
2004
300c
1c38
07e0
ENDCHAR
STARTCHAR uni01D2
ENCODING 466
SWIDTH 482 0
DWIDTH 13 0
BBX 11 17 1 0
BITMAP
1100
0a00
0400
0000
1f00
3180
60c0
c060
c060
c060
c060
c060
c060
c060
60c0
3180
1f00
ENDCHAR
STARTCHAR uni01D3
ENCODING 467
SWIDTH 656 0
DWIDTH 18 0
BBX 15 22 2 0
BITMAP
0440
0280
0100
fc3e
3008
3008
3008
3008
3008
3008
3008
3008
3008
3008
3008
3008
3008
3008
3010
1810
0c20
07c0
ENDCHAR
STARTCHAR uni01D4
ENCODING 468
SWIDTH 524 0
DWIDTH 15 0
BBX 14 18 0 0
BITMAP
0880
0500
0200
0000
0000
f0f0
3030
3030
3030
3030
3030
3030
3030
3030
3030
303c
38f8
1f20
ENDCHAR
STARTCHAR uni01D5
ENCODING 469
SWIDTH 656 0
DWIDTH 18 0
BBX 15 24 2 0
BITMAP
07e0
0000
0660
0660
0000
fc3e
3008
3008
3008
3008
3008
3008
3008
3008
3008
3008
3008
3008
3008
3008
3010
1810
0c20
07c0
ENDCHAR
STARTCHAR uni01D6
ENCODING 470
SWIDTH 524 0
DWIDTH 15 0
BBX 14 19 0 0
BITMAP
0fc0
0000
0cc0
0cc0
0000
0000
f0f0
3030
3030
3030
3030
3030
3030
3030
3030
3030
303c
38f8
1f20
ENDCHAR
STARTCHAR uni01D7
ENCODING 471
SWIDTH 656 0
DWIDTH 18 0
BBX 15 26 2 0
BITMAP
0080
0100
0200
0000
0660
0660
0000
fc3e
3008
3008
3008
3008
3008
3008
3008
3008
3008
3008
3008
3008
3008
3008
3010
1810
0c20
07c0
ENDCHAR
STARTCHAR uni01D8
ENCODING 472
SWIDTH 524 0
DWIDTH 15 0
BBX 14 21 0 0
BITMAP
0100
0200
0400
0000
0cc0
0cc0
0000
0000
f0f0
3030
3030
3030
3030
3030
3030
3030
3030
3030
303c
38f8
1f20
ENDCHAR
STARTCHAR uni01D9
ENCODING 473
SWIDTH 656 0
DWIDTH 18 0
BBX 15 26 2 0
BITMAP
0420
0240
0180
0000
0660
0660
0000
fc3e
3008
3008
3008
3008
3008
3008
3008
3008
3008
3008
3008
3008
3008
3008
3010
1810
0c20
07c0
ENDCHAR
STARTCHAR uni01DA
ENCODING 474
SWIDTH 524 0
DWIDTH 15 0
BBX 14 21 0 0
BITMAP
0840
0480
0300
0000
0cc0
0cc0
0000
0000
f0f0
3030
3030
3030
3030
3030
3030
3030
3030
3030
303c
38f8
1f20
ENDCHAR
STARTCHAR uni01DB
ENCODING 475
SWIDTH 656 0
DWIDTH 18 0
BBX 15 25 2 0
BITMAP
0200
0100
0080
0000
0660
0660
f81e
3008
3008
3008
3008
3008
3008
3008
3008
3008
3008
3008
3008
3008
3008
3010
1810
0c20
07c0
ENDCHAR
STARTCHAR uni01DC
ENCODING 476
SWIDTH 524 0
DWIDTH 15 0
BBX 14 21 0 0
BITMAP
0400
0200
0100
0000
18c0
18c0
0000
0000
f0f0
3030
3030
3030
3030
3030
3030
3030
3030
3030
303c
38f8
1f20
ENDCHAR
STARTCHAR uni01DD
ENCODING 477
SWIDTH 457 0
DWIDTH 13 0
BBX 10 13 1 0
BITMAP
3e00
7f00
c380
8180
80c0
00c0
00c0
00c0
ffc0
c0c0
6180
6180
3f00
ENDCHAR
STARTCHAR uni01DE
ENCODING 478
SWIDTH 732 0
DWIDTH 20 0
BBX 18 23 1 0
BITMAP
03f800
000000
031800
031800
004000
00e000
006000
00e000
00b000
013000
013000
021800
021800
03f800
040c00
040c00
080c00
080600
080600
100600
100300
300300
fc0fc0
ENDCHAR
STARTCHAR uni01DF
ENCODING 479
SWIDTH 400 0
DWIDTH 11 0
BBX 10 19 1 0
BITMAP
7f00
0000
6300
6300
0000
0000
3e00
4700
c300
c300
8300
0700
3b00
6300
c300
c300
c700
cb40
7380
ENDCHAR
STARTCHAR uni01E0
ENCODING 480
SWIDTH 732 0
DWIDTH 20 0
BBX 18 24 1 0
BITMAP
03f800
000000
006000
006000
000000
004000
00e000
006000
00e000
00b000
013000
013000
021800
021800
03f800
040c00
040c00
080c00
080600
080600
100600
100300
300300
fc0fc0
ENDCHAR
STARTCHAR uni01E1
ENCODING 481
SWIDTH 400 0
DWIDTH 11 0
BBX 10 19 1 0
BITMAP
3f00
0000
0c00
0c00
0000
0000
3e00
4700
c300
c300
8300
0700
3b00
6300
c300
c300
c700
cb40
7380
ENDCHAR
STARTCHAR uni01E2
ENCODING 482
SWIDTH 888 0
DWIDTH 25 0
BBX 22 21 1 0
BITMAP
003f00
000000
00fff8
007038
00b018
00b00c
00b004
013004
013040
0230c0
023fc0
07f0c0
0430c0
043040
083040
083000
103004
103004
303008
303018
fcfff8
ENDCHAR
STARTCHAR uni01E3
ENCODING 483
SWIDTH 644 0
DWIDTH 18 0
BBX 17 17 1 0
BITMAP
07e000
000000
000000
000000
3c7800
478600
c70200
860300
07ff00
060000
1e0000
660000
c60080
c30100
c78700
edfe00
70f800
ENDCHAR
STARTCHAR uni01E4
ENCODING 484
SWIDTH 610 0
DWIDTH 17 0
BBX 16 19 1 0
BITMAP
07e4
1c3c
381c
700c
6004
e004
c000
c000
c000
c03f
c00c
c00c
c00c
e03f
600c
700c
381c
1c30
07e0
ENDCHAR
STARTCHAR uni01E5
ENCODING 485
SWIDTH 457 0
DWIDTH 13 0
BBX 13 20 1 -6
BITMAP
00c0
1ec0
2100
6180
6180
6180
6180
2100
1300
3c00
4000
7000
3f00
47c0
8060
81f8
8020
8060
40c0
3f00
ENDCHAR
STARTCHAR Gcaron
ENCODING 486
SWIDTH 610 0
DWIDTH 17 0
BBX 15 23 1 0
BITMAP
0440
0280
0100
0000
07e4
1c3c
381c
700c
6004
e004
c000
c000
c000
c03e
c00c
c00c
c00c
e00c
600c
700c
381c
1c30
07e0
ENDCHAR
STARTCHAR gcaron
ENCODING 487
SWIDTH 457 0
DWIDTH 13 0
BBX 11 24 1 -6
BITMAP
2100
1200
0c00
0000
00c0
1ec0
2100
6180
6180
6180
6180
2100
1300
3c00
4000
7000
3f00
43c0
8060
8020
8020
8060
40c0
3f00
ENDCHAR
STARTCHAR uni01E8
ENCODING 488
SWIDTH 662 0
DWIDTH 19 0
BBX 15 22 2 0
BITMAP
0880
0500
0200
fcfe
3038
3030
3020
3040
3080
3100
3200
3600
3b00
3180
3180
30c0
3060
3060
3030
3018
301c
fc3e
ENDCHAR
STARTCHAR uni01E9
ENCODING 489
SWIDTH 526 0
DWIDTH 15 0
BBX 13 22 1 0
BITMAP
1100
0a00
0400
1000
7000
f000
3000
3000
3000
31f8
30e0
30c0
3080
3100
3600
3b00
3180
3180
30c0
30e0
3060
fcf8
ENDCHAR
STARTCHAR uni01EA
ENCODING 490
SWIDTH 710 0
DWIDTH 20 0
BBX 16 24 2 -5
BITMAP
07e0
1c38
300c
6006
6006
c003
c003
c003
c003
c003
c003
c003
c003
c003
6006
6006
300c
381c
1ff8
07e0
0200
0200
0220
01c0
ENDCHAR
STARTCHAR uni01EB
ENCODING 491
SWIDTH 482 0
DWIDTH 13 0
BBX 11 18 1 -5
BITMAP
1f00
3180
60c0
c060
c060
c060
c060
c060
c060
c060
60c0
3180
1f00
0800
1000
1000
0880
0700
ENDCHAR
STARTCHAR uni01EC
ENCODING 492
SWIDTH 710 0
DWIDTH 20 0
BBX 16 27 2 -5
BITMAP
07e0
0000
0000
07e0
1c38
300c
6006
6006
c003
c003
c003
c003
c003
c003
c003
c003
c003
6006
6006
300c
1818
0ff0
0100
0200
0200
0220
01c0
ENDCHAR
STARTCHAR uni01ED
ENCODING 493
SWIDTH 482 0
DWIDTH 13 0
BBX 11 21 1 -5
BITMAP
3f80
0000
0000
1f00
3180
60c0
c060
c060
c060
c060
c060
c060
c060
60c0
3180
1f00
0800
1000
1000
0880
0700
ENDCHAR
STARTCHAR uni01EE
ENCODING 494
SWIDTH 490 0
DWIDTH 14 0
BBX 10 22 3 0
BITMAP
2200
1400
0800
7fc0
4180
8300
8600
0600
0c00
1800
3c00
3f00
0380
01c0
00c0
00c0
00c0
40c0
e080
c180
c300
7c00
ENDCHAR
STARTCHAR uni01EF
ENCODING 495
SWIDTH 465 0
DWIDTH 13 0
BBX 10 23 1 -6
BITMAP
1100
0a00
0400
0000
7fc0
4180
8300
8600
0600
0c00
1800
3c00
3f00
0380
01c0
00c0
00c0
00c0
40c0
e080
c180
c300
7c00
ENDCHAR
STARTCHAR uni01F0
ENCODING 496
SWIDTH 287 0
DWIDTH 8 0
BBX 6 22 0 -4
BITMAP
44
28
10
00
08
18
38
18
18
18
18
18
18
18
18
18
18
18
18
18
d8
f0
ENDCHAR
STARTCHAR uni01F1
ENCODING 497
SWIDTH 1315 0
DWIDTH 37 0
BBX 33 19 1 0
BITMAP
fff007ff80
3018070300
300c060300
3006040600
3006040600
3003040c00
3003001800
3003001800
3003003000
3003006000
3003006000
300300c000
3003018000
3006018080
3006030080
300c070180
3018060300
30200c0700
ffc00fff00
ENDCHAR
STARTCHAR uni01F2
ENCODING 498
SWIDTH 1123 0
DWIDTH 31 0
BBX 29 19 1 0
BITMAP
fff00000
30180000
300c0000
30060000
30060000
30030000
30030ff8
30030c30
30030860
30030860
300300c0
300300c0
30030180
30060300
30060300
300c0608
30180610
30200c30
ffc01ff0
ENDCHAR
STARTCHAR uni01F3
ENCODING 499
SWIDTH 874 0
DWIDTH 24 0
BBX 22 19 1 0
BITMAP
004000
01c000
00c000
00c000
00c000
00c000
1ec3fc
31c318
60c218
c0c230
c0c030
c0c060
c0c0c0
c0c0c0
c0c180
c0c304
60e308
21c618
1e87f8
ENDCHAR
STARTCHAR uni01F4
ENCODING 500
SWIDTH 610 0
DWIDTH 17 0
BBX 15 23 1 0
BITMAP
0080
0100
0200
0000
07e4
1c3c
381c
700c
6004
e004
c000
c000
c000
c03e
c00c
c00c
c00c
e00c
600c
700c
381c
1c30
07e0
ENDCHAR
STARTCHAR uni01F5
ENCODING 501
SWIDTH 457 0
DWIDTH 13 0
BBX 11 24 1 -6
BITMAP
0200
0400
0800
0000
00c0
1ec0
2100
6180
6180
6180
6180
2100
1300
3c00
4000
7000
3f00
43c0
8060
8020
8020
8060
40c0
3f00
ENDCHAR
STARTCHAR uni01F6
ENCODING 502
SWIDTH 869 0
DWIDTH 24 0
BBX 22 19 1 0
BITMAP
ff1fc0
1c0700
1c0700
1c0700
1c0700
1c0700
1c073c
1c070c
1c070c
1fff0c
1c070c
1c070c
1c070c
1c070c
1c070c
1c070c
1c070c
1c0398
ff01f0
ENDCHAR
STARTCHAR uni01F7
ENCODING 503
SWIDTH 524 0
DWIDTH 15 0
BBX 12 19 1 -6
BITMAP
1780
78e0
3060
3030
3030
3030
3030
3030
3030
3060
3040
3080
3100
3200
3400
3800
3000
3000
c000
ENDCHAR
STARTCHAR uni01F8
ENCODING 504
SWIDTH 730 0
DWIDTH 20 0
BBX 19 22 1 0
BITMAP
010000
008000
004000
780fe0
1c0380
1c0100
160100
120100
130100
118100
118100
10c100
106100
106100
103100
101100
101900
100d00
100d00
100700
380300
fe0300
ENDCHAR
STARTCHAR uni01F9
ENCODING 505
SWIDTH 510 0
DWIDTH 14 0
BBX 13 17 1 0
BITMAP
0800
0400
0200
0000
13c0
7ce0
f060
3060
3060
3060
3060
3060
3060
3060
3060
3060
fdf8
ENDCHAR
STARTCHAR Aringacute
ENCODING 506
SWIDTH 732 0
DWIDTH 20 0
BBX 18 26 1 0
BITMAP
002000
004000
008000
000000
00c000
012000
012000
00c000
00e000
00e000
00a000
013000
013000
013000
021800
021800
07f800
040c00
040c00
080c00
080600
100600
100600
100300
300300
fc0fc0
ENDCHAR
STARTCHAR aringacute
ENCODING 507
SWIDTH 400 0
DWIDTH 11 0
BBX 10 22 1 0
BITMAP
0400
0800
1000
0000
1c00
3600
3600
1c00
0000
3e00
6700
c300
c300
0300
0700
3b00
6300
c300
c300
c700
ef40
7380
ENDCHAR
STARTCHAR AEacute
ENCODING 508
SWIDTH 888 0
DWIDTH 25 0
BBX 23 23 1 0
BITMAP
000300
000600
000800
000000
00fff8
007018
007008
00b004
00b004
013044
013040
0230c0
03ffc0
0230c0
043040
043040
083000
083002
103004
103004
103008
303018
fcfff8
ENDCHAR
STARTCHAR aeacute
ENCODING 509
SWIDTH 644 0
DWIDTH 18 0
BBX 16 18 1 0
BITMAP
0060
00c0
0100
0000
0000
3c7c
46fe
c383
c303
03ff
0700
1b00
6300
c300
c301
c783
edfe
787c
ENDCHAR
STARTCHAR Oslashacute
ENCODING 510
SWIDTH 710 0
DWIDTH 20 0
BBX 16 24 2 -1
BITMAP
0040
0080
0100
0004
03c8
0ff8
1018
302c
6026
6046
c043
c083
c083
c103
c303
c203
c403
c403
6806
6806
300c
3808
2ff0
43c0
ENDCHAR
STARTCHAR oslashacute
ENCODING 511
SWIDTH 515 0
DWIDTH 14 0
BBX 11 19 1 -1
BITMAP
0200
0400
0800
0000
0040
1f40
3180
61c0
c160
c260
c460
c460
c860
c860
d060
60c0
3180
5f00
4000
ENDCHAR
STARTCHAR uni0200
ENCODING 512
SWIDTH 732 0
DWIDTH 20 0
BBX 18 23 1 0
BITMAP
084000
042000
021000
004000
004000
00c000
006000
00e000
00a000
013000
013000
021000
021800
03f800
040c00
040c00
080c00
080600
100600
100200
100300
300300
fc0fc0
ENDCHAR
STARTCHAR uni0201
ENCODING 513
SWIDTH 400 0
DWIDTH 11 0
BBX 10 19 1 0
BITMAP
4800
2400
1200
0000
0000
0000
3c00
4600
c600
c600
0600
0e00
1600
6600
c600
c600
c600
ce40
7380
ENDCHAR
STARTCHAR uni0202
ENCODING 514
SWIDTH 732 0
DWIDTH 20 0
BBX 18 22 1 0
BITMAP
01e000
021000
021000
004000
00c000
006000
00e000
00a000
013000
013000
021000
021800
03f800
040c00
040c00
080c00
080600
100600
100200
100300
300300
fc0fc0
ENDCHAR
STARTCHAR uni0203
ENCODING 515
SWIDTH 400 0
DWIDTH 11 0
BBX 10 18 1 0
BITMAP
3e00
4100
0000
0000
0000
3e00
4700
c300
c300
8300
0700
3b00
6300
c300
c300
c700
cb40
7380
ENDCHAR
STARTCHAR uni0204
ENCODING 516
SWIDTH 584 0
DWIDTH 16 0
BBX 15 23 1 0
BITMAP
4200
2100
1080
0000
fff8
3018
3008
3004
3004
3042
3040
30c0
3fc0
30c0
3040
3040
3000
3002
3004
3004
3008
3018
fff8
ENDCHAR
STARTCHAR uni0205
ENCODING 517
SWIDTH 457 0
DWIDTH 13 0
BBX 10 18 1 0
BITMAP
4400
2200
1100
0000
0000
3f00
6180
6180
c0c0
ffc0
c000
c000
c000
c000
c040
60c0
7f80
1f00
ENDCHAR
STARTCHAR uni0206
ENCODING 518
SWIDTH 584 0
DWIDTH 16 0
BBX 15 22 1 0
BITMAP
0780
0840
0000
fff8
3018
3008
3004
3004
3042
3040
30c0
3fc0
30c0
3040
3040
3000
3002
3004
3004
3008
3018
fff8
ENDCHAR
STARTCHAR uni0207
ENCODING 519
SWIDTH 457 0
DWIDTH 13 0
BBX 10 17 1 0
BITMAP
1e00
2100
0000
0000
3f00
6180
6180
c0c0
ffc0
c000
c000
c000
c000
c040
60c0
7f80
1f00
ENDCHAR
STARTCHAR uni0208
ENCODING 520
SWIDTH 297 0
DWIDTH 8 0
BBX 7 23 0 0
BITMAP
88
44
22
00
7e
18
18
18
18
18
18
18
18
18
18
18
18
18
18
18
18
18
7e
ENDCHAR
STARTCHAR uni0209
ENCODING 521
SWIDTH 262 0
DWIDTH 7 0
BBX 8 18 -1 0
BITMAP
cc
22
00
00
00
04
3c
0c
0c
0c
0c
0c
0c
0c
0c
0c
0c
3f
ENDCHAR
STARTCHAR uni020A
ENCODING 522
SWIDTH 297 0
DWIDTH 8 0
BBX 6 22 1 0
BITMAP
78
84
00
fc
30
30
30
30
30
30
30
30
30
30
30
30
30
30
30
30
30
fc
ENDCHAR
STARTCHAR uni020B
ENCODING 523
SWIDTH 262 0
DWIDTH 7 0
BBX 7 18 0 0
BITMAP
7c
c6
00
00
00
08
78
18
18
18
18
18
18
18
18
18
18
7e
ENDCHAR
STARTCHAR uni020C
ENCODING 524
SWIDTH 710 0
DWIDTH 20 0
BBX 16 22 2 0
BITMAP
1980
0cc0
0000
07e0
1818
300c
6006
6006
c003
c003
c003
c003
c003
c003
c003
c003
c003
6006
6006
300c
1818
07e0
ENDCHAR
STARTCHAR uni020D
ENCODING 525
SWIDTH 482 0
DWIDTH 13 0
BBX 11 18 1 0
BITMAP
cc00
6600
3300
0000
0000
1f00
3180
60c0
c060
c060
c060
c060
c060
c060
c060
60c0
3180
1f00
ENDCHAR
STARTCHAR uni020E
ENCODING 526
SWIDTH 710 0
DWIDTH 20 0
BBX 16 22 2 0
BITMAP
03c0
0420
0000
07e0
1818
300c
6006
6006
c003
c003
c003
c003
c003
c003
c003
c003
c003
6006
6006
300c
1818
07e0
ENDCHAR
STARTCHAR uni020F
ENCODING 527
SWIDTH 482 0
DWIDTH 13 0
BBX 11 18 1 0
BITMAP
1f00
3f80
60c0
0000
0000
1f00
3180
60c0
c060
c060
c060
c060
c060
c060
c060
60c0
3180
1f00
ENDCHAR
STARTCHAR uni0210
ENCODING 528
SWIDTH 627 0
DWIDTH 18 0
BBX 16 23 1 0
BITMAP
cc00
6600
3300
0000
ffc0
3060
3030
3030
3030
3030
3070
3060
3f80
3100
3180
30c0
3040
3060
3030
3010
3018
300c
fc07
ENDCHAR
STARTCHAR uni0211
ENCODING 529
SWIDTH 345 0
DWIDTH 10 0
BBX 9 18 0 0
BITMAP
cc00
6600
3300
0000
0000
0b80
3d80
1800
1800
1800
1800
1800
1800
1800
1800
1800
1800
7e00
ENDCHAR
STARTCHAR uni0212
ENCODING 530
SWIDTH 627 0
DWIDTH 18 0
BBX 16 23 1 0
BITMAP
0600
0f00
1980
0000
ffc0
3060
3030
3030
3030
3030
3070
3060
3f80
3100
3180
30c0
3040
3060
3030
3010
3018
300c
fc07
ENDCHAR
STARTCHAR uni0213
ENCODING 531
SWIDTH 345 0
DWIDTH 10 0
BBX 8 18 1 0
BITMAP
3e
41
41
00
00
17
7b
30
30
30
30
30
30
30
30
30
30
fc
ENDCHAR
STARTCHAR uni0214
ENCODING 532
SWIDTH 656 0
DWIDTH 18 0
BBX 15 23 2 0
BITMAP
0880
0440
0220
0000
fc3e
3008
3008
3008
3008
3008
3008
3008
3008
3008
3008
3008
3008
3008
3008
3010
1810
0c20
07c0
ENDCHAR
STARTCHAR uni0215
ENCODING 533
SWIDTH 524 0
DWIDTH 15 0
BBX 14 17 0 0
BITMAP
6600
3300
1980
0000
f0f0
3030
3030
3030
3030
3030
3030
3030
3030
3030
303c
38f8
1f20
ENDCHAR
STARTCHAR uni0216
ENCODING 534
SWIDTH 656 0
DWIDTH 18 0
BBX 15 23 2 0
BITMAP
0380
0440
0000
0000
fc3e
3008
3008
3008
3008
3008
3008
3008
3008
3008
3008
3008
3008
3008
3008
3010
1810
0c20
07c0
ENDCHAR
STARTCHAR uni0217
ENCODING 535
SWIDTH 524 0
DWIDTH 15 0
BBX 14 18 0 0
BITMAP
0f80
1040
1040
0000
0000
f0f0
3030
3030
3030
3030
3030
3030
3030
3030
3030
303c
38f8
1f20
ENDCHAR
STARTCHAR Scommaaccent
ENCODING 536
SWIDTH 502 0
DWIDTH 14 0
BBX 12 25 1 -6
BITMAP
0f10
30a0
6060
c020
c010
c010
e000
7000
3c00
0f00
01c0
0060
0030
4010
4010
4010
6020
5860
4780
0000
0700
0700
0300
0200
0400
ENDCHAR
STARTCHAR scommaaccent
ENCODING 537
SWIDTH 385 0
DWIDTH 11 0
BBX 8 19 1 -6
BITMAP
3e
41
c1
c1
c0
70
3c
0e
03
83
83
c2
7c
00
1c
1c
0c
08
30
ENDCHAR
STARTCHAR Tcommaaccent
ENCODING 538
SWIDTH 741 0
DWIDTH 21 0
BBX 20 25 0 -6
BITMAP
3fffc0
7060e0
c06020
806010
806010
006000
006000
006000
006000
006000
006000
006000
006000
006000
006000
006000
006000
006000
01f800
000000
007000
007000
003000
002000
004000
ENDCHAR
STARTCHAR tcommaaccent
ENCODING 539
SWIDTH 265 0
DWIDTH 7 0
BBX 6 22 1 -6
BITMAP
20
60
e0
f8
60
60
60
60
60
60
60
60
60
60
64
38
00
70
70
30
20
40
ENDCHAR
STARTCHAR uni021C
ENCODING 540
SWIDTH 539 0
DWIDTH 15 0
BBX 12 23 2 -4
BITMAP
4f80
78c0
6060
4060
8060
8060
0060
0060
01c0
07e0
0870
0030
0030
0030
0030
0030
0060
01c0
0f00
3c00
7000
c000
8000
ENDCHAR
STARTCHAR uni021D
ENCODING 541
SWIDTH 464 0
DWIDTH 13 0
BBX 9 15 2 -2
BITMAP
be00
c300
8180
8180
0180
0300
1c00
0300
0180
0180
0180
0300
3c00
4000
8000
ENDCHAR
STARTCHAR uni021E
ENCODING 542
SWIDTH 695 0
DWIDTH 19 0
BBX 16 22 2 0
BITMAP
0440
0280
0100
fc3f
300c
300c
300c
300c
300c
300c
300c
300c
3ffc
300c
300c
300c
300c
300c
300c
300c
300c
fc3f
ENDCHAR
STARTCHAR uni021F
ENCODING 543
SWIDTH 510 0
DWIDTH 14 0
BBX 13 22 1 0
BITMAP
0880
0500
0200
1000
7000
f000
3000
3000
3000
33c0
34e0
3860
3060
3060
3060
3060
3060
3060
3060
3060
3060
fdf8
ENDCHAR
STARTCHAR uni0222
ENCODING 546
SWIDTH 580 0
DWIDTH 16 0
BBX 13 17 0 0
BITMAP
0180
1c60
3030
6030
6030
7060
38c0
1f00
1fc0
21f0
4078
c038
c018
c018
6030
3060
0f80
ENDCHAR
STARTCHAR uni0223
ENCODING 547
SWIDTH 472 0
DWIDTH 13 0
BBX 10 16 2 0
BITMAP
3300
6180
6180
e180
7380
7f00
3c00
3f00
4f80
c3c0
81c0
80c0
80c0
c1c0
4180
3f00
ENDCHAR
STARTCHAR uni0224
ENCODING 548
SWIDTH 582 0
DWIDTH 16 0
BBX 13 23 2 -4
BITMAP
3ff8
7010
6030
4060
4040
80c0
0180
0180
0300
0600
0600
0c00
1800
1800
3000
3000
6000
c000
fff0
0008
0008
0008
0010
ENDCHAR
STARTCHAR uni0225
ENCODING 549
SWIDTH 404 0
DWIDTH 11 0
BBX 9 17 1 -4
BITMAP
7f80
6100
4300
4200
0600
0c00
0800
1800
1000
3000
6000
4000
fe00
0100
0100
0100
0200
ENDCHAR
STARTCHAR uni0226
ENCODING 550
SWIDTH 732 0
DWIDTH 20 0
BBX 18 23 1 0
BITMAP
006000
006000
000000
000000
004000
00c000
006000
00e000
00a000
013000
013000
021000
021800
03f800
040c00
040c00
080c00
080600
100600
100200
100300
300300
fc0fc0
ENDCHAR
STARTCHAR uni0227
ENCODING 551
SWIDTH 400 0
DWIDTH 11 0
BBX 10 17 1 0
BITMAP
0c00
0c00
0000
0000
1c00
2600
6600
4600
4600
0e00
1600
6600
c600
c600
c600
ce40
7380
ENDCHAR
STARTCHAR uni0228
ENCODING 552
SWIDTH 584 0
DWIDTH 16 0
BBX 15 25 1 -6
BITMAP
fff8
3018
3008
3004
3004
3042
3040
30c0
3fc0
30c0
3040
3040
3000
3002
3004
3004
3008
3038
fff8
0200
0380
00c0
00c0
00c0
0780
ENDCHAR
STARTCHAR uni0229
ENCODING 553
SWIDTH 457 0
DWIDTH 13 0
BBX 11 19 1 -6
BITMAP
0f00
3180
60c0
60c0
ffc0
c000
c000
c000
c020
6040
70c0
3f80
1f00
0800
0e00
0300
0300
0300
1e00
ENDCHAR
STARTCHAR uni022A
ENCODING 554
SWIDTH 710 0
DWIDTH 20 0
BBX 16 26 2 -1
BITMAP
07e0
0000
0000
0630
0630
0000
07e0
1c38
300c
2004
6006
4002
c003
c003
c003
c003
c003
c003
c003
c003
4002
6006
2004
300c
1c38
07e0
ENDCHAR
STARTCHAR uni022B
ENCODING 555
SWIDTH 482 0
DWIDTH 13 0
BBX 11 20 1 0
BITMAP
1f80
0000
0000
0880
0880
0000
0000
1f00
3180
60c0
4040
4060
c060
c060
c060
4060
4040
60c0
3180
1f00
ENDCHAR
STARTCHAR uni022C
ENCODING 556
SWIDTH 710 0
DWIDTH 20 0
BBX 16 26 2 -1
BITMAP
07e0
0000
0000
03a0
07e0
0000
07e0
1c38
300c
2004
6006
4002
c003
c003
c003
c003
c003
c003
c003
c003
4002
6006
2004
300c
1c38
07e0
ENDCHAR
STARTCHAR uni022D
ENCODING 557
SWIDTH 482 0
DWIDTH 13 0
BBX 11 20 1 0
BITMAP
1f80
0000
0000
0e80
1f80
0000
0000
1f00
3180
60c0
4040
4060
c060
c060
c060
4060
4040
60c0
3180
1f00
ENDCHAR
STARTCHAR uni022E
ENCODING 558
SWIDTH 710 0
DWIDTH 20 0
BBX 16 24 2 -1
BITMAP
0180
0180
0000
0000
07e0
1c38
300c
2004
6006
4002
c003
c003
c003
c003
c003
c003
c003
c003
4002
6006
2004
300c
1c38
07e0
ENDCHAR
STARTCHAR uni022F
ENCODING 559
SWIDTH 482 0
DWIDTH 13 0
BBX 11 17 1 0
BITMAP
0600
0600
0000
0000
1f00
3180
60c0
4040
4060
c060
c060
c060
4060
4040
60c0
3180
1f00
ENDCHAR
STARTCHAR uni0230
ENCODING 560
SWIDTH 710 0
DWIDTH 20 0
BBX 16 27 2 -1
BITMAP
07e0
0000
0000
0180
0180
0000
0000
07e0
1c38
300c
2004
6006
4002
c003
c003
c003
c003
c003
c003
c003
c003
4002
6006
2004
300c
1c38
07e0
ENDCHAR
STARTCHAR uni0231
ENCODING 561
SWIDTH 482 0
DWIDTH 13 0
BBX 11 21 1 0
BITMAP
3f80
3f80
0000
0000
0600
0600
0000
0000
1f00
3180
60c0
c060
c060
c060
c060
c060
c060
c060
60c0
3180
1f00
ENDCHAR
STARTCHAR uni0232
ENCODING 562
SWIDTH 653 0
DWIDTH 18 0
BBX 16 21 2 0
BITMAP
0fc0
0000
f83f
301c
3018
1810
1820
0c20
0c40
0680
0300
0300
0300
0300
0300
0300
0300
0300
0300
0300
0fc0
ENDCHAR
STARTCHAR uni0233
ENCODING 563
SWIDTH 440 0
DWIDTH 12 0
BBX 12 19 0 -3
BITMAP
1fc0
0000
0000
f1f0
6020
3040
3040
3080
1880
1900
1900
0e00
0e00
0c00
0400
0800
6800
7000
2000
ENDCHAR
STARTCHAR uni0250
ENCODING 592
SWIDTH 400 0
DWIDTH 11 0
BBX 9 13 1 0
BITMAP
6700
b980
3180
3180
3180
3100
3600
3800
3000
3180
3180
3300
1e00
ENDCHAR
STARTCHAR uni0251
ENCODING 593
SWIDTH 487 0
DWIDTH 14 0
BBX 11 13 1 0
BITMAP
1e20
31c0
60c0
c0c0
c0c0
c0c0
c0c0
c0c0
c0c0
c0c0
60e0
21c0
1e80
ENDCHAR
STARTCHAR uni0252
ENCODING 594
SWIDTH 487 0
DWIDTH 14 0
BBX 11 14 1 -1
BITMAP
2f00
7080
e0c0
6040
6060
6060
6060
6060
6060
6060
6040
60c0
7180
4f00
ENDCHAR
STARTCHAR uni0253
ENCODING 595
SWIDTH 489 0
DWIDTH 14 0
BBX 11 19 2 0
BITMAP
7800
d800
c000
c000
c000
c000
ff80
c1c0
c1e0
80e0
80e0
80e0
80e0
80e0
80e0
80c0
c1c0
c180
bf00
ENDCHAR
STARTCHAR uni0254
ENCODING 596
SWIDTH 424 0
DWIDTH 12 0
BBX 9 14 1 -1
BITMAP
3c00
7e00
c700
8300
8180
0180
0180
0180
0180
8100
c100
c200
c600
3800
ENDCHAR
STARTCHAR uni0255
ENCODING 597
SWIDTH 424 0
DWIDTH 12 0
BBX 9 15 1 -2
BITMAP
0e00
3180
6180
4180
c080
c000
c000
c780
c880
7080
7080
3f00
3e00
2000
2000
ENDCHAR
STARTCHAR uni0256
ENCODING 598
SWIDTH 548 0
DWIDTH 15 0
BBX 15 22 1 -3
BITMAP
0030
00f0
0070
0070
0070
0070
1ff0
2070
6070
6070
c070
c070
c070
c070
c070
c070
6070
2070
19f0
0670
003e
001c
ENDCHAR
STARTCHAR uni0257
ENCODING 599
SWIDTH 546 0
DWIDTH 15 0
BBX 15 20 1 0
BITMAP
001c
003e
0070
0070
0070
0070
0670
19f0
2070
6070
4070
c070
c070
c070
c070
c070
4070
6070
20f8
1fe0
ENDCHAR
STARTCHAR uni0258
ENCODING 600
SWIDTH 457 0
DWIDTH 13 0
BBX 11 13 1 0
BITMAP
3e00
7380
e1c0
e1c0
ffe0
00e0
00e0
00e0
80e0
c1c0
e3c0
7f80
3f00
ENDCHAR
STARTCHAR uni0259
ENCODING 601
SWIDTH 457 0
DWIDTH 13 0
BBX 10 14 1 -1
BITMAP
3e00
7f00
c380
8180
80c0
00c0
00c0
00c0
ffc0
c180
c180
4100
6300
3c00
ENDCHAR
STARTCHAR uni025A
ENCODING 602
SWIDTH 594 0
DWIDTH 17 0
BBX 15 13 1 0
BITMAP
3e00
7f00
c380
8180
81c0
00c0
00e0
01d0
0ed2
718c
c180
4300
3c00
ENDCHAR
STARTCHAR uni025B
ENCODING 603
SWIDTH 464 0
DWIDTH 13 0
BBX 11 13 1 0
BITMAP
1fc0
39c0
70c0
70c0
7000
3800
0e00
7800
f000
e000
e060
78c0
3f00
ENDCHAR
STARTCHAR uni025C
ENCODING 604
SWIDTH 464 0
DWIDTH 13 0
BBX 9 13 2 0
BITMAP
5e00
6300
4180
4180
0180
0300
0c00
0300
0180
0180
8180
4300
3e00
ENDCHAR
STARTCHAR uni025D
ENCODING 605
SWIDTH 579 0
DWIDTH 16 0
BBX 15 13 1 0
BITMAP
5f00
6180
40e0
40d0
00d2
018c
0e00
0180
00c0
00c0
c0c0
6180
1f00
ENDCHAR
STARTCHAR uni025E
ENCODING 606
SWIDTH 645 0
DWIDTH 18 0
BBX 11 13 1 0
BITMAP
0f00
1fc0
2040
4020
8020
8020
8fc0
8020
c020
4020
2060
1fc0
0f00
ENDCHAR
STARTCHAR uni025F
ENCODING 607
SWIDTH 287 0
DWIDTH 8 0
BBX 7 17 0 -4
BITMAP
08
38
18
18
18
18
18
18
18
18
18
3e
18
18
58
d0
60
ENDCHAR
STARTCHAR uni0260
ENCODING 608
SWIDTH 457 0
DWIDTH 13 0
BBX 11 20 1 -6
BITMAP
0040
1cc0
33c0
6100
6180
6180
6180
2180
3300
3e00
4000
6000
3f00
47c0
8060
8060
8020
c040
60c0
1f00
ENDCHAR
STARTCHAR uni0261
ENCODING 609
SWIDTH 457 0
DWIDTH 13 0
BBX 11 19 1 -6
BITMAP
1e00
3300
3100
6100
6180
2100
3100
1300
1e00
6000
7000
3f00
27c0
40e0
8060
8060
c0c0
6180
1f00
ENDCHAR
STARTCHAR uni0262
ENCODING 610
SWIDTH 482 0
DWIDTH 13 0
BBX 11 13 1 0
BITMAP
1f60
30e0
6060
e060
c000
c000
c1e0
c0e0
c0e0
e0e0
60e0
30e0
1f00
ENDCHAR
STARTCHAR uni0263
ENCODING 611
SWIDTH 593 0
DWIDTH 17 0
BBX 14 19 1 0
BITMAP
f8fc
6038
2030
3020
3020
1020
1840
1840
0880
0c80
0480
0500
0700
0200
0300
0300
0300
0500
0300
ENDCHAR
STARTCHAR uni0264
ENCODING 612
SWIDTH 428 0
DWIDTH 12 0
BBX 10 13 1 0
BITMAP
f3c0
6180
6100
2100
3100
1200
1a00
1a00
0c00
0c00
0c00
0c00
0c00
ENDCHAR
STARTCHAR uni0265
ENCODING 613
SWIDTH 510 0
DWIDTH 14 0
BBX 13 19 1 0
BITMAP
fdf8
3060
3060
3060
3060
3060
3060
3060
3060
3060
3060
30e0
3960
1e60
0060
0060
0060
0078
0040
ENDCHAR
STARTCHAR uni0266
ENCODING 614
SWIDTH 510 0
DWIDTH 14 0
BBX 12 19 1 0
BITMAP
1e00
3e00
3000
3000
3000
3000
37e0
38e0
3060
3060
3060
3060
3060
3060
3060
3060
3060
3060
f9f0
ENDCHAR
STARTCHAR uni0267
ENCODING 615
SWIDTH 510 0
DWIDTH 14 0
BBX 12 22 1 -3
BITMAP
1e00
3e00
3000
3000
3000
3000
37e0
3cf0
3070
3070
3070
3070
3070
3070
3070
3070
3070
3070
7070
9870
03e0
03c0
ENDCHAR
STARTCHAR uni0268
ENCODING 616
SWIDTH 262 0
DWIDTH 7 0
BBX 5 13 1 0
BITMAP
20
e0
60
20
20
20
f8
20
20
20
20
20
f8
ENDCHAR
STARTCHAR uni0269
ENCODING 617
SWIDTH 295 0
DWIDTH 8 0
BBX 6 13 2 0
BITMAP
20
e0
60
60
60
60
60
60
60
60
60
64
38
ENDCHAR
STARTCHAR uni026A
ENCODING 618
SWIDTH 297 0
DWIDTH 8 0
BBX 6 13 1 0
BITMAP
fc
30
30
30
30
30
30
30
30
30
30
30
fc
ENDCHAR
STARTCHAR uni026B
ENCODING 619
SWIDTH 262 0
DWIDTH 7 0
BBX 6 19 1 0
BITMAP
10
60
e0
20
20
20
64
f8
b0
20
20
20
20
20
20
20
20
20
f8
ENDCHAR
STARTCHAR uni026C
ENCODING 620
SWIDTH 262 0
DWIDTH 7 0
BBX 6 19 0 0
BITMAP
10
30
70
30
30
30
30
f0
b0
b0
7c
30
30
30
30
30
30
30
fc
ENDCHAR
STARTCHAR uni026D
ENCODING 621
SWIDTH 262 0
DWIDTH 7 0
BBX 7 22 1 -3
BITMAP
30
70
f0
70
70
70
70
70
70
70
70
70
70
70
70
70
70
70
70
70
3e
1e
ENDCHAR
STARTCHAR uni026E
ENCODING 622
SWIDTH 510 0
DWIDTH 14 0
BBX 12 24 1 -5
BITMAP
1800
7800
7800
3800
3800
3900
3ef0
3c70
3870
3870
3870
3870
3860
3860
3860
38e0
38c0
38c0
fec0
0060
3830
7030
3070
1fc0
ENDCHAR
STARTCHAR uni026F
ENCODING 623
SWIDTH 785 0
DWIDTH 22 0
BBX 20 13 1 0
BITMAP
fdfbf0
3060c0
3060c0
3060c0
3060c0
3060c0
3060c0
3060c0
3060c0
3060c0
3060f0
39f3e0
1e3c80
ENDCHAR
STARTCHAR uni0270
ENCODING 624
SWIDTH 785 0
DWIDTH 22 0
BBX 20 19 1 -6
BITMAP
fdfbf0
3060c0
3060c0
3060c0
3060c0
3060c0
3060c0
3060c0
3060c0
3060c0
3060c0
39f3c0
1e3cc0
0000c0
0000c0
0000c0
0000f0
0000e0
000080
ENDCHAR
STARTCHAR uni0271
ENCODING 625
SWIDTH 785 0
DWIDTH 22 0
BBX 19 17 1 -4
BITMAP
37cfc0
fcf9e0
7060e0
3060e0
3060e0
3060e0
3060e0
3060e0
3060e0
3060e0
3060e0
3060e0
f9f0e0
0000e0
0000e0
0007c0
000780
ENDCHAR
STARTCHAR uni0272
ENCODING 626
SWIDTH 510 0
DWIDTH 14 0
BBX 13 17 0 -4
BITMAP
1be0
7e70
3830
1830
1830
1830
1830
1830
1830
1830
1830
1830
18f8
1800
1800
f800
f000
ENDCHAR
STARTCHAR uni0273
ENCODING 627
SWIDTH 510 0
DWIDTH 14 0
BBX 13 17 1 -4
BITMAP
2780
68c0
f040
2040
2040
2040
2040
2040
2040
2040
2040
2040
f840
0040
0040
0078
0038
ENDCHAR
STARTCHAR uni0274
ENCODING 628
SWIDTH 584 0
DWIDTH 16 0
BBX 15 13 0 0
BITMAP
787e
1810
1c08
1608
1608
1308
1188
1188
10c8
1048
1068
1030
fc10
ENDCHAR
STARTCHAR uni0275
ENCODING 629
SWIDTH 482 0
DWIDTH 13 0
BBX 11 13 1 0
BITMAP
1f00
3180
60c0
60c0
4060
c060
ffe0
ffe0
4060
4040
60c0
3180
1f00
ENDCHAR
STARTCHAR uni0276
ENCODING 630
SWIDTH 854 0
DWIDTH 24 0
BBX 18 13 1 0
BITMAP
1fff80
30c080
40c040
c0c240
80c200
80c600
80fe00
80c200
80c000
c0c040
c0c040
61c180
1fff80
ENDCHAR
STARTCHAR uni0277
ENCODING 631
SWIDTH 738 0
DWIDTH 21 0
BBX 18 14 1 0
BITMAP
03f000
0c0c00
180300
200180
600180
40c0c0
c0c0c0
c0c0c0
c0c0c0
c0c0c0
60c080
60c180
31e300
1f3c00
ENDCHAR
STARTCHAR uni0278
ENCODING 632
SWIDTH 446 0
DWIDTH 12 0
BBX 11 19 1 0
BITMAP
1f80
0600
0600
0f00
3680
66c0
6640
c660
c660
c660
c660
c660
6640
66c0
3680
0f00
0600
0600
1f80
ENDCHAR
STARTCHAR uni0279
ENCODING 633
SWIDTH 345 0
DWIDTH 10 0
BBX 8 13 1 0
BITMAP
3f
0c
0c
0c
0c
0c
0c
0c
0c
0c
0c
fe
c8
ENDCHAR
STARTCHAR uni027A
ENCODING 634
SWIDTH 345 0
DWIDTH 10 0
BBX 8 19 1 0
BITMAP
3f
0c
0c
0c
0c
0c
0c
0c
0c
0c
0c
0c
0c
0c
0c
0c
0c
fe
c8
ENDCHAR
STARTCHAR uni027B
ENCODING 635
SWIDTH 345 0
DWIDTH 10 0
BBX 10 16 1 -3
BITMAP
3f80
0e00
0e00
0e00
0e00
0e00
0e00
0e00
0e00
0e00
0e00
fe00
fe00
0e00
07c0
03c0
ENDCHAR
STARTCHAR uni027C
ENCODING 636
SWIDTH 345 0
DWIDTH 10 0
BBX 7 19 2 -6
BITMAP
2c
fe
60
60
60
60
60
60
60
60
60
60
60
60
60
60
60
60
f0
ENDCHAR
STARTCHAR uni027D
ENCODING 637
SWIDTH 345 0
DWIDTH 10 0
BBX 8 16 2 -3
BITMAP
3f
ff
70
70
70
70
70
70
70
70
70
70
70
70
7e
3c
ENDCHAR
STARTCHAR uni027E
ENCODING 638
SWIDTH 345 0
DWIDTH 10 0
BBX 6 14 1 0
BITMAP
1c
3c
30
30
30
30
30
30
30
30
30
30
30
fc
ENDCHAR
STARTCHAR uni027F
ENCODING 639
SWIDTH 345 0
DWIDTH 10 0
BBX 7 14 1 0
BITMAP
f0
f8
38
38
38
38
38
38
38
38
38
38
38
fe
ENDCHAR
STARTCHAR uni0280
ENCODING 640
SWIDTH 515 0
DWIDTH 14 0
BBX 11 13 1 0
BITMAP
fe00
6300
6100
6100
6100
6300
6400
6600
6200
6100
6180
6080
f8e0
ENDCHAR
STARTCHAR uni0281
ENCODING 641
SWIDTH 515 0
DWIDTH 14 0
BBX 12 14 1 -1
BITMAP
fc70
70e0
71c0
7180
7380
7300
7700
7a00
7180
7180
7180
7380
ff80
ff00
ENDCHAR
STARTCHAR uni0282
ENCODING 642
SWIDTH 385 0
DWIDTH 11 0
BBX 8 16 1 -3
BITMAP
3c
62
c1
c1
e0
70
3c
1e
07
01
41
41
66
58
58
30
ENDCHAR
STARTCHAR uni0283
ENCODING 643
SWIDTH 272 0
DWIDTH 8 0
BBX 8 23 -1 -4
BITMAP
06
1b
18
18
18
18
18
18
18
18
18
18
18
18
18
18
18
18
18
18
18
d8
60
ENDCHAR
STARTCHAR uni0284
ENCODING 644
SWIDTH 272 0
DWIDTH 8 0
BBX 8 23 -1 -4
BITMAP
06
1b
18
18
18
18
18
3c
18
18
18
18
18
18
18
18
18
3c
18
18
18
d8
60
ENDCHAR
STARTCHAR uni0285
ENCODING 645
SWIDTH 272 0
DWIDTH 8 0
BBX 8 23 -1 -4
BITMAP
70
fc
1c
1c
1c
1c
1c
1c
1c
1c
1c
1c
1c
1c
1c
1c
1c
1c
1c
1c
1c
1f
07
ENDCHAR
STARTCHAR uni0286
ENCODING 646
SWIDTH 272 0
DWIDTH 8 0
BBX 8 24 -1 -5
BITMAP
06
1b
18
18
18
18
18
18
18
18
18
18
18
18
18
18
18
18
7c
9a
9a
99
d1
70
ENDCHAR
STARTCHAR uni0287
ENCODING 647
SWIDTH 265 0
DWIDTH 7 0
BBX 5 16 1 0
BITMAP
e0
b0
30
30
30
30
30
30
30
30
30
30
f8
38
30
20
ENDCHAR
STARTCHAR uni0288
ENCODING 648
SWIDTH 265 0
DWIDTH 7 0
BBX 7 20 1 -4
BITMAP
30
70
70
fc
70
70
70
70
70
70
70
70
70
70
70
70
30
34
3e
1e
ENDCHAR
STARTCHAR uni0289
ENCODING 649
SWIDTH 524 0
DWIDTH 15 0
BBX 14 13 0 0
BITMAP
f070
3030
3030
3030
fffc
3030
3030
3030
3030
3030
303c
3878
1fa0
ENDCHAR
STARTCHAR uni028A
ENCODING 650
SWIDTH 518 0
DWIDTH 15 0
BBX 12 13 1 0
BITMAP
79e0
9990
1980
3180
60c0
c060
c030
c030
c030
c030
6060
30c0
1f80
ENDCHAR
STARTCHAR uni028B
ENCODING 651
SWIDTH 524 0
DWIDTH 15 0
BBX 13 13 1 0
BITMAP
f1f0
7070
7038
7038
7038
7038
7038
7038
7070
3070
3060
38c0
1f80
ENDCHAR
STARTCHAR uni028C
ENCODING 652
SWIDTH 465 0
DWIDTH 13 0
BBX 12 14 1 -1
BITMAP
0200
0200
0700
0700
0500
0900
0980
0880
1080
10c0
1040
2040
2060
f8f0
ENDCHAR
STARTCHAR uni028D
ENCODING 653
SWIDTH 629 0
DWIDTH 18 0
BBX 17 14 0 -1
BITMAP
021000
021000
061800
072800
072800
094c00
094c00
09c400
108600
108600
10c200
204200
204300
f0f780
ENDCHAR
STARTCHAR uni028E
ENCODING 654
SWIDTH 440 0
DWIDTH 12 0
BBX 12 15 0 0
BITMAP
00e0
00e0
0100
0100
0300
0300
0500
0580
0980
0880
10c0
10c0
2040
6060
f8f0
ENDCHAR
STARTCHAR uni028F
ENCODING 655
SWIDTH 496 0
DWIDTH 14 0
BBX 11 13 1 0
BITMAP
f1e0
6080
3080
1100
1a00
0a00
0c00
0c00
0c00
0c00
0c00
0c00
1e00
ENDCHAR
STARTCHAR uni0290
ENCODING 656
SWIDTH 404 0
DWIDTH 11 0
BBX 12 16 1 -3
BITMAP
7f80
6180
4300
4200
0600
0c00
0800
1800
1000
3080
6080
4100
ff00
0100
00b0
0060
ENDCHAR
STARTCHAR uni0291
ENCODING 657
SWIDTH 404 0
DWIDTH 11 0
BBX 9 14 1 -1
BITMAP
7f80
4300
4200
8600
0c00
0800
1800
1000
3000
6e00
5100
d300
fe00
2000
ENDCHAR
STARTCHAR uni0292
ENCODING 658
SWIDTH 465 0
DWIDTH 13 0
BBX 9 19 3 -6
BITMAP
ff80
8300
8600
8c00
0c00
1800
3800
3c00
1e00
0700
0380
0180
0180
0180
0180
c300
c300
8e00
7800
ENDCHAR
STARTCHAR uni0293
ENCODING 659
SWIDTH 465 0
DWIDTH 13 0
BBX 12 19 2 -6
BITMAP
7fc0
4180
4300
8600
0600
0c00
1800
1e00
0700
0380
01c0
00c0
00c0
3ec0
41c0
81b0
8190
c700
3c00
ENDCHAR
STARTCHAR uni0294
ENCODING 660
SWIDTH 441 0
DWIDTH 12 0
BBX 10 20 2 -1
BITMAP
3e00
e700
e380
e180
e1c0
00c0
00c0
00c0
01c0
01c0
0380
cf80
ff00
fc00
e000
e000
e000
e000
e000
e000
ENDCHAR
STARTCHAR uni0295
ENCODING 661
SWIDTH 441 0
DWIDTH 12 0
BBX 9 20 2 -1
BITMAP
1e00
3180
6180
4180
c180
8000
8000
8000
c000
c000
6000
7880
3f80
0d80
0180
0180
0180
0180
0180
0180
ENDCHAR
STARTCHAR uni0296
ENCODING 662
SWIDTH 441 0
DWIDTH 12 0
BBX 9 19 2 0
BITMAP
c000
c000
c000
c000
c000
c000
fc00
fe00
8700
0380
0180
0080
0080
0080
4180
c100
c300
c600
3c00
ENDCHAR
STARTCHAR uni0297
ENCODING 663
SWIDTH 424 0
DWIDTH 12 0
BBX 10 19 1 0
BITMAP
0f00
3180
6180
4180
c000
c000
c000
c000
c000
c000
c000
c000
c000
c000
e040
6080
7180
3f00
1e00
ENDCHAR
STARTCHAR uni0298
ENCODING 664
SWIDTH 565 0
DWIDTH 16 0
BBX 13 13 1 0
BITMAP
0f80
3060
6030
4010
8008
8608
8708
8308
8008
4010
6030
3060
0f80
ENDCHAR
STARTCHAR uni0299
ENCODING 665
SWIDTH 452 0
DWIDTH 13 0
BBX 10 13 1 0
BITMAP
ff80
39c0
38c0
38c0
38c0
3f80
38c0
38c0
38c0
38c0
39c0
3980
ff00
ENDCHAR
STARTCHAR uni029A
ENCODING 666
SWIDTH 645 0
DWIDTH 18 0
BBX 12 13 1 0
BITMAP
1f00
7f80
60c0
c060
c030
c030
7f30
c030
c070
c060
e0c0
7f80
1f00
ENDCHAR
STARTCHAR uni029B
ENCODING 667
SWIDTH 482 0
DWIDTH 13 0
BBX 13 14 1 0
BITMAP
0038
1f58
20c0
4040
4040
c000
8000
81f0
8040
c040
c040
4040
20a0
1f00
ENDCHAR
STARTCHAR uni029C
ENCODING 668
SWIDTH 562 0
DWIDTH 16 0
BBX 11 13 2 0
BITMAP
f1e0
60c0
60c0
60c0
60c0
60c0
7fc0
60c0
60c0
60c0
60c0
60c0
f1e0
ENDCHAR
STARTCHAR uni029D
ENCODING 669
SWIDTH 287 0
DWIDTH 8 0
BBX 8 17 -1 -4
BITMAP
04
1c
0c
0c
0c
0c
0c
0c
0c
0c
0c
0c
3e
cd
8c
88
70
ENDCHAR
ENDFONT
